<?xml version="1.0" encoding="UTF-8"?>
<svg id="Layer_1" xmlns="http://www.w3.org/2000/svg" viewBox="0 0 780.21 204.37" fill="currentFill">
  <path d="M53.52,44.63c.06.19.23.5.17.56-.73.71-1.52,1.36-2.26,2.07-.41.39-.79.83-1.14,1.28-.9,1.15-1.8,2.3-2.65,3.5-.29.41-.37.97-.61,1.44-.15.29-.4.52-.61.77-.08-.06-.16-.12-.24-.18.19-.28.38-.56.57-.84-.06-.07-.11-.15-.17-.22-.54.4-1.22.7-1.6,1.22-1.06,1.48-2.04,3.02-2.96,4.59-1.18,2.01-2.33,4.05-3.4,6.12-1.08,2.07-2.04,4.2-3.07,6.29-.71,1.45-1.46,2.88-2.22,4.36-.33-.36-.61-.73-.96-1.02-.56-.48-1.29-.87-.35-1.67.05-.05-.16-.4-.24-.6-.19.19-.5.36-.55.59-.39,1.62.08,3.11.9,4.47.21.35.88.43,1.21.58-.13.39-.29.84-.45,1.3l.37.1c.03-.28.06-.55.1-.92.39.37,1.22.19,1,1.18-.04.16.98.56,1.52.84.1.05.28.06.31.13.88,2.16,2.36,3.72,4.48,4.71,1.24.58,2.4,1.36,3.67,1.88,1.45.6,2.98.97,4.45,1.52,2.3.86,4.66,1.59,6.83,2.72,2.1,1.09,3.99,2.58,5.94,3.94.25.17.47.84.35,1-.38.48-.88,1.04-1.43,1.17-.65.15-1.47.04-2.07-.25-1.85-.91-3.77-1.48-5.79-1.89-1.92-.39-3.77-1.12-5.64-1.75-.31-.11-.55-.45-.7-.58-.73.1-1.35.19-2.23.32,1.67,3.38,3.32,6.69,5.09,10.27.67.24.93,1.12.29,2.32h.58c1.05,1.55,2.08,3.07,3.11,4.6.07-.02.14-.04.22-.07-.25-.83-.41-1.71-.78-2.49-.84-1.73-1.79-3.4-2.7-5.09-.2-.37-.43-.72-.65-1.07.11-.08.22-.16.33-.24.42.52.83,1.05,1.25,1.57,1.75,2.18,3.48,4.37,5.25,6.52,1.26,1.54,2.6,3,3.85,4.54,1.31,1.63,2.57,3.3,3.83,4.98,1.25,1.66,2.52,3.32,3.69,5.03,1.42,2.07,2.75,4.19,4.13,6.29.7,1.06,1.45,2.08,2.12,3.15,1.18,1.88,2.37,3.77,3.48,5.7,1.02,1.77,1.96,3.58,2.89,5.39,1.08,2.1,2.16,4.2,3.17,6.34.45.95,1.28,1.84.72,3.06-.04.09.24.32.37.49.14.17.29.34.43.51-.22.16-.41.4-.65.45-1.79.44-3.29.14-4.84-1.09-1.65-1.31-2.95-2.9-4.35-4.4-1.11-1.19-2.21-2.51-2.66-4.22-.11-.44-.81-.69-1.13-1.11-1.44-1.88-3.11-3.65-4.17-5.72-.83-1.62-2.05-2.9-2.9-4.46-1.06-1.94-2.22-3.83-3.34-5.74-.04-.06-.11-.1-.14-.16-.42-.9-.77-1.84-1.26-2.71-.85-1.51-1.76-2.98-2.66-4.46-.26-.43-.6-.82-.83-1.27-.12-.24-.07-.56-.09-.82-.19-.22-.42-.5-.82-.96h1c.01-.06.03-.13.04-.19-.48-.21-.96-.42-1.5-.66.48-.93-.03-1.66-.94-1.97-.74-.26-.01-1.2-.8-1.3.13-.03.26-.07.18-.05-.31-.65-.58-1.31-.92-1.93-.21-.38-.52-.7-.67-.89-.28-.57-.49-1-.7-1.43-.39-.78-.75-1.58-1.18-2.34-.55-.99-1.15-1.94-1.71-2.92-.38-.66-.74-1.34-1.09-2.02-.44-.87-.79-1.78-1.28-2.62-1.17-2.04-2.4-4.05-3.59-6.07-.1-.17-.11-.4-.14-.61-.09-.49-.16-.98-.27-1.61.67,0,1.5-.12,2.28.03,1.39.26,2.75.7,4.13,1.04.44.11.9.14,1.33.21.17.09.43.3.51.24.56-.35,1.08-.75,1.62-1.14-.09.27-.18.53-.29.84.87.38,1.72.76,2.58,1.14.12-.42.21-.76.27-.96-.8-.14-1.52-.27-2.25-.4-.09-.15-.21-.37-.33-.58-.84-.34-1.67-.75-2.54-.99-.45-.12-.98.06-1.48.11-.06-.54-.92-1.08-1.46-.91-.13.04-.32.14-.4.08-1.15-.83-2.66-.67-3.86-1.46-.68-.45-1.64-.5-2.48-.67-.67-.14-1.34-.71-2.05-.06-.04.04-.41-.17-.4-.22.13-.84-.27-.78-.89-.66-.27.05-.6-.31-.91-.44-.39-.17-.8-.3-1.2-.45-.08.1-.17.2-.25.3.33.47.67.95,1.05,1.49-.02.04-.11.21-.2.39.04.05.07.09.11.14.41-.29.81-.57,1.22-.86.09.1.18.19.27.29-.31.13-.63.25-.88.36.6.33,1.05.58,1.49.83-.19.34-.38.68-.55.98.73,1.4,1.5,2.91,2.29,4.4.18.34.49.62.68.96,1.4,2.51,2.78,5.03,4.17,7.55,1.06,1.94,2.12,3.87,3.17,5.81.92,1.7,1.8,3.43,2.76,5.11,1.02,1.78,2.15,3.51,3.18,5.28.57.98,1.03,2.03,1.6,3.01,1.17,2,2.41,3.96,3.56,5.97,1.31,2.28,2.5,4.62,4.23,6.65,1.12,1.33,1.89,2.95,2.92,4.35,1.66,2.26,3.37,4.5,5.16,6.66,1.26,1.52,2.69,2.91,4.05,4.35.94.99,1.88,1.98,3.02,3.19-3.07-.9-5.45-3.85-7.1-5.76-1.39-1.62-2.86-3.18-4.23-4.83-.95-1.14-1.83-2.35-2.66-3.58-2.09-3.09-4.18-6.18-6.19-9.33-.98-1.54-1.76-3.2-2.65-4.8-1.99-3.56-3.99-7.12-5.99-10.68-1.88-3.34-3.77-6.68-5.66-10.02-1.19-2.1-2.35-4.22-3.58-6.3-.25-.42-.79-.66-1.13-1.05-.2-.22-.25-.56-.43-.98-1.61-.44-2.32-1.44-1.44-2.4-.06.13-.13.25-.23.45.25.1.49.19.79.3.12-.27.24-.54.42-.94-.63-.21-1.17-.4-1.77-.61v1.44c-1-1.02-1.97-2.01-3.11-3.18-.45.94-.91,1.78-1.27,2.66-.83,2.05-1.57,4.14-2.46,6.16-.2.45-.82.74-1.29,1.04-1.41.92-2.88.78-4.38.23-.25-.09-.58.03-.86-.02-.23-.04-.44-.19-.86-.38-.02,0-.3.06-.54.18-.13.06-.33.28-.3.36.15.41.35.8.57,1.17.21.36.45.7.81,1.24-.68,1.06-.15,2.27.74,3.53h-.76c.03.17.02.32.08.35.27.14.56.25.94.41-.12-.81-.2-1.37-.29-1.93.03,0,.07,0,.1-.01-.14-.69-.28-1.38-.41-2.08.06-.03.12-.07.18-.1.16.3.35.59.47.9.35.91-.21,2.14,1.01,2.76.09.05-.04.55-.08.9-.21-.04-.5-.1-.84-.17-.06,1.73.46,3.2,1.48,4.54.29.37.36.92.49,1.4.17.63.33,1.27.43,1.91.16,1-.68,1.49-1.19,2.12-.95,1.17-1.87,1.38-3.05.76-.53,1.12-.42,2.23-.24,3.42.28,1.8.33,3.63.48,5.44.22,2.59.45,5.18.68,7.77.13,1.42.3,2.84.4,4.26.24,3.71.47,7.42.64,11.14.04.94-.19,1.89-.29,2.82-2.96-.08-4.08-1.67-3.96-4.41-.02.15-.05.3-.06.45-.02.18-.02.36-.03.54-1.42-.61-1.3-2.04-1.67-3.15-.56-1.66-.95-3.38-1.3-5.1-.5-2.49-.91-5-1.34-7.5-.26-1.53-.48-3.07-.71-4.61-.28-1.89-.55-3.79-.81-5.68-.24-1.76-.47-3.52-.66-5.28-.17-1.57-.25-3.15-.43-4.72-.23-1.91-.55-3.82-.78-5.73-.14-1.13-.18-2.28-.29-3.41-.35-3.73-.74-7.46-1.07-11.2-.19-2.1-.29-4.21-.45-6.31-.12-1.59-.3-3.19-.41-4.78-.12-1.7-.16-3.42-.29-5.12-.05-.69-.29-1.36-.38-2.05-.17-1.29-.29-2.59-.43-3.88-.21-2.01-.43-4.02-.62-6.04-.12-1.27-.13-2.55-.26-3.82-.17-1.74-.42-3.48-.6-5.22-.12-1.1-.15-2.21-.26-3.32-.34-3.19-.72-6.37-1.06-9.56-.18-1.64-.29-3.29-.46-4.93-.28-2.79-.54-5.59-.88-8.38-.47-3.88-1.01-7.76-1.5-11.64-.39-3.1-.74-6.21-1.11-9.31,0-.08-.12-.15-.19-.22,0-2.17,0-4.33,0-6.5.19-.09.48-.13.56-.28.62-1.1,1.61-.56,2.4-.48,1.02.11,2.02.5,3.02.77.17.04.38.03.5.13,1.21.93,1.79,2.23,1.97,3.69.2,1.62.25,3.27.46,4.89.31,2.42.8,4.83,1.02,7.26.26,2.97.31,5.96.47,8.95.01.22.15.43.2.66.17.78.95,1.53.15,2.38-.03.03.09.21.15.32.16.3.47.61.47.91.01,1.36-.06,2.72-.11,4.18.2-.15.39-.22.4-.31.13-.92.69-1.13,1.52-.99.13.02.3-.19.45-.29-.16-.08-.35-.12-.48-.23-.25-.22-.47-.47-.7-.71.06-.06.12-.12.18-.18.23.11.45.22.77.38-.09-.42-.15-.72-.23-1.02-.08-.3-.19-.59-.29-.89-.5-.15-1.12-.46-1.12-.77,0-.46.44-.92.62-1.23-.41-.55-.8-1.06-1.28-1.71.65.18,1.06.29,1.6.44-.87-.7-1.54-1.11-1.33-2.4.22-1.32-.21-2.74-.26-4.12-.05-1.45.05-2.91.01-4.36-.08-3.3-.18-6.61-.32-9.91-.05-1.13-.34-2.26-.32-3.39C10.53,3.42,9.74,1.53,11.27,0,11.85,0,12.43,0,13,0c.42.14.82.32,1.25.43,1.48.39,3.02.63,4.45,1.16,1.24.45,1.26,1.83,1.4,2.87.35,2.54.58,5.1.67,7.66.11,2.99,0,6,.04,9,0,.89.22,1.78.19,2.67-.09,2.39-.29,4.78-.38,7.17-.07,1.82.01,3.65-.05,5.47-.11,3.09-.31,6.18-.42,9.27-.06,1.57.02,3.14-.01,4.72-.05,2.37-.15,4.73-.21,7.1-.03,1.01.04,2.03-.02,3.03-.1,1.57-.29,3.13-.41,4.7-.04.56,0,1.12,0,1.88.39.41.71.38,1.3-.32.79-.95,1.55-1.92,2.39-2.83,1.35-1.45,2.97-2.69,4.07-4.3,1.45-2.13,3.71-3.5,5.01-5.74.25-.44.66-.9,1.11-1.09,1.23-.52,1.69-1.6,2.24-2.66.25-.48.69-.85,1.07-1.3h-.58c.4-.59.7-1.18,1.13-1.66,2.72-3.04,5.45-6.08,8.22-9.08.92-1,2.01-1.83,2.97-2.8,1.84-1.86,3.73-3.69,5.44-5.68,1.93-2.24,3.71-4.62,5.49-6.98,1.55-2.05,2.95-4.2,4.55-6.21.88-1.1,1.93-2.12,3.08-2.93.55-.39,1.79-.53,2.23-.18,1.38,1.09,2.55.32,3.67-.18,1.42-.63,2.59-.4,3.97.19,1.59.68,3.06,1.4,4.19,2.77.7.84.66,1.69-.25,2.32-1.57,1.08-3.2,2.09-4.7,3.27-1.15.91-2.13,2.03-3.21,3.04-1.82,1.73-3.69,3.41-5.48,5.18-2.1,2.07-4.22,4.13-6.14,6.35-.75.87-1.69,1.48-2.2,2.48-.28.49-.52,1.02-.88,1.46-.08.1-.56-.13-.95-.23-.16.29-.42.75-.68,1.21l.03-.02h-1.97c.51-.42,1.09-.83,1.59-1.32.29-.28.41-.75.7-1.03,1.17-1.11,2.38-2.17,3.55-3.28.44-.41.82-.9,1.21-1.36.58-.67,1.14-1.35,1.64-1.94-.58-.28-.99-.48-1.59-.77.87-.25,1.44-.42,2.17-.63-.81-.75-1.73-1.09-1.33-2.32.45.15.87.28,1.03.33.44-.18.71-.29,1.04-.43-.13-.14-.25-.27-.47-.5.34-.06.6-.1.91-.15-.22-.21-.43-.4-.66-.61q.9-.38.96.88c.41-.57.75-1.04,1.09-1.52-.19-.06-.39-.12-.59-.18,0-.04.02-.08.03-.13.34.03.69.06.77.07.77-1.58,1.51-3.08,2.25-4.6.18.15.33.27.64.53-.13-.62-.21-1.03-.3-1.44-.31.32-.63.62-.92.95-.66.74-1,1.81-2.37,1.74-.7-.03-1.44,1.68-1.16,2.3-1.09-.08-2.81,1.36-3.27,2.54-.42.16-.85.24-.87.35-.07.76-.43,1.22-1.14,1.48-.19.07-.47.42-.45.46.38.53-.14.49-.37.59-.22.1-.52.06-.69.21-.31.26-.52.63-.81.9-.85.82-1.72,1.62-2.6,2.42-.58.53-1.19,1.04-1.77,1.58-.52.48-1.06.96-1.53,1.5-.71.81-1.25,1.86-2.1,2.46-.82.58-1.38,1.28-1.94,2.04-.11.15-.2.35-.36.45-.76.46-.64.99-.35,1.32-.43.42-.88.8-1.23,1.25-.22.29-.27.7-.43,1.05-.22.49-.56.95-.67,1.46-.04.18.44.47.69.71.29-.57,1.38-.55,1.13-1.54-.03-.11.13-.27.13-.4.05-1.48,1.33-2,2.23-2.81.21-.19.56-.21,1.1-.38.02-.32.07-.93.13-1.71.17.36.28.58.28.58.54.08.89.13,1.24.18-.01.11-.03.21-.04.32h-.76c.09.06.18.12.27.19-.17.42-.27.88-.52,1.24-.39.56-.89,1.04-1.31,1.58-.38.49-.63,1.1-1.07,1.52-1.11,1.06-2.28,2.06-3.45,3.05-.18.15-.47.17-.43.16-.57.53-.96.93-1.38,1.29-.37.32-.82.55-1.16.89-.84.83-1.55,1.81-2.47,2.53-.69.54-1.62.77-2.44,1.15-.48.22-.96.45-1.46.69,0,.02.09.32-.01.44-.76.86-1.57,1.68-2.34,2.53-1.57,1.71-3.12,3.44-4.68,5.16-.94,1.03-1.92,2.03-2.83,3.09-.63.74-1.18,1.55-1.83,2.4,1.35.08,2.45.15,3.3.21.55-.79.96-1.4,1.38-2.01.07.03.14.06.21.09-.04.24-.08.48-.12.72.31-.23.38-.53.45-.83.06-.27.02-.61.18-.79,1.17-1.31,2.37-2.59,3.57-3.87.47-.5.97-.98,1.43-1.48.57-.62,1.11-1.27,1.69-1.89.62-.66,1.27-1.28,1.89-1.93.72-.75,1.4-1.53,2.14-2.26.09-.09.42.06.64.11-.06-.08-.11-.15-.17-.23l2.37-2.46q-.43,1.23-.09,1.43c.51-.62.98-1.21,1.52-1.88,0,0-.1-.22-.21-.44.25-.09.5-.2.76-.27.22-.06.45-.08.68-.12-.01-.07-.02-.14-.03-.21-.21-.09-.41-.17-.62-.26l.05-.38c.33.03.81.21.98.05.74-.66,1.4-1.42,2.08-2.15.13-.14.23-.3.38-.42.7-.56,1.73-.44,2.31-1.33.61-.93,1.44-1.74,2.23-2.54.36-.36.86-.59,1.3-.87l-.03-.03ZM26.89,84.28c.11-.81-.67-1.69-1.6-1.92.32.53.66,1.15,1.06,1.73.09.13.38.11.58.16,0,.13-.01.37.03.39.91.27,1.83.51,2.75.74.09.02.22-.15.32-.22-.34-.29-.66-.55-.78-.66-.48.03-.76.08-1.03.05-.45-.06-.89-.17-1.34-.26ZM10.34,50.29c-.05,1.04-.1,2.03-.15,3.02,0,.17-.06.34-.05.5.1,1.01.28,2.02.29,3.04,0,1.17-.19,2.34-.2,3.5-.01.96.15,1.92.16,2.89.03,2.18.03,4.35,0,6.53-.01.8-.43,1.67-.22,2.38.22.76-.13.94-.6,1.45-.37-4.74-.72-9.3-1.09-13.96-.08-.05-.32-.2-.38-.24.59-2.2-.6-4.08-.53-6.08-.15.02-.3.04-.45.06.06.31.11.62.18.95-.21.05-.44.11-.54.13.28,1.23.56,2.41.8,3.6.03.15-.11.33-.13.5-.04.28-.11.56-.07.83.13,1,.33,1.99.44,2.98.05.42-.22.95-.05,1.28.45.85.33,1.65.24,2.48.16.63.31,1.28.21,1.89-.15.86.75,1.37.39,2.46-.43,1.28.05,2.85.08,4.29.04,2.13.45,4.22.46,6.35,0,1.32.47,2.66.35,3.95-.13,1.34.97,2.47.45,3.83-.06.14.25.54.47.66.32.17.71.19,1.17.3-.14.78-.27,1.51-.4,2.23-.1-.02-.21-.03-.31-.05.06-.59.13-1.19.2-1.89-.37.04-.66.07-1.03.11.21,1.48.4,2.84.6,4.2.1.66.23,1.31.34,1.97-.09.01-.19.02-.28.04.34.32.67.63,1.01.95-.05.07-.11.13-.16.2-.19-.09-.38-.19-.64-.32v1.92c.25-.04.48-.07.98-.15-.47.32-.7.47-.9.61,1.15,7.35,1.34,14.78,2.49,22.14-.18-.2-.36-.4-.54-.6,0,.32.12.55.24.78.29.53.65,1.04.83,1.61.24.73.39,1.5.49,2.26.1.67-.46,1.33.01,2.05.26.39.3.93.45,1.4,0-1.78-.2-3.51-.43-5.24-.09-.66-.32-1.31-.41-1.97-.12-.86-.14-1.73-.23-2.6-.06-.59-.17-1.18-.24-1.77-.05-.46-.08-.92-.12-1.38,0,0,0-.01,0-.02-.57-5.76-1.13-11.52-1.72-17.48.68.25,1.02.38,1.48.55-.2-.48-.35-.83-.47-1.13.15-.14.28-.27.42-.4-.04-.06-.08-.12-.12-.18-.47.16-.95.31-1.42.47-.02-.05-.04-.1-.06-.16.45-.22.91-.45,1.52-.75-.34-.35-.87-.65-.9-.99-.03-.36.4-.77.53-.98-.08-.74-.17-1.37-.22-2.01-.14-1.6-.25-3.2-.4-4.8-.09-.97-.24-1.93-.32-2.9-.07-.79-.35-1.72-.03-2.33.45-.86.12-1.32-.36-1.78-.93-.9-.85-1.74-.41-2.93.5-1.34.82-2.95.58-4.32-.48-2.75-.34-5.45-.11-8.18.04-.51.02-1.01.8-.66.05.02.48-.54.54-.87.12-.66.1-1.34.14-2.01,0-.14.05-.34-.02-.42-.7-.78-.37-1.62-.19-2.46.05-.25.01-.52.01-.78-.27.06-.54.12-.93.21,0-.35,0-.68,0-1,.01-.5.15-1.03.03-1.5-.28-1.09.36-1.05,1.08-.99v-.87c-2.13.78-1-1.21-1.86-1.83.72.22,1.16.35,1.6.48.03-.1.06-.2.1-.3-.22-.11-.44-.21-.65-.31.18-.53.34-.99.53-1.55-.1-.08-.3-.26-.52-.44.14-.18.24-.43.42-.53.8-.46-.28-1.07.16-1.64.22-.27.04-.86.04-1.28-.39.05-.6.07-1.11.14.57-.49,1.25-.9,1.19-1.05-.39-1.06.48-2.08.22-2.89-.27-.82-.2-1.3.15-1.99-.35.2-.58.47-.74.77-.2.37-.34.77-.53,1.22.29.05.58.1.87.15v.1c-.51.03-1,.06-1.24.07-.29.82-.62,1.46-.72,2.15-.11.72-.07,1.42-1.15,1.37.63.58,1.27,2.46,1.03,2.91-.16.02-.33.04-.39.05ZM21.84,80.95c-1.1.17-1.77.75-1.9,1.89-.04.39-.05.73-.34,1.15-.31.45.04,1.37.14,2.07.09.69.23,1.38.35,2.08-.76.06-1.2.09-1.64.13,0,.1,0,.19,0,.29h1.62c0,.14.01.27.02.41-.48.04-.95.09-1.42.13.22.4-.79,1.11.38,1.52-.07-.35-.12-.58-.22-1.02.52.35.94,1.05,1.27-.2v1.13c-.45.2-.92.32-1.23.61-.14.13.04.61.07.86.48-.37.83-.64,1.18-.91.07.08.14.15.21.23-.5.73-.99,1.46-1.45,2.13.54.07,1.06.14,1.67.22.32-.6.75-1.31,1.09-2.06.96-2.07,1.86-4.17,2.84-6.23.69-1.45.76-1.98-.97-2.44-.04-.01-.06-.11-.09-.17.13-.17.26-.34.45-.59-.55-.03-.98-.05-1.4-.07-.23-.4-.44-.79-.65-1.16ZM28.62,59.75c-.72.44-1.26.71-1.72,1.06-.46.35-.88.77-1.25,1.21-.63.74-1.27,1.48-1.8,2.29-.61.93-1.03,1.99-1.68,2.88-.81,1.11-1.8,2.09-2.67,3.16-.45.56-.8,1.21-1.19,1.81-.08-.04-.17-.07-.25-.11.14.33.27.67.47,1.14.64-.59,1.16-1.06,1.63-1.5.36-.58.71-1.16,1.14-1.86.2-.09.56-.25.92-.42-.74-1.33.65-.26.74-.66-.06-.6,1.53-2.34,2.38-2.61-.05-.22-.1-.43-.16-.68.57.08,1.25.45.93-.61-.04-.12.18-.42.34-.46,1.09-.32,1.42-.7,1.55-1.69.03-.27.27-.56.49-.74.52-.44,1.15-.76,1.62-1.25,1.15-1.19,2.24-2.44,3.33-3.68.23-.26.33-.63.64-1.24-.92,0-1.69-.23-2.11.05-.77.52-1.33,1.35-1.97,2.05-.15.16-.29.42-.46.44-1.08.15-.85.99-.89,1.4ZM67.5,133.04c-.36-.29-.88-.54-1.16-.96-.43-.61-.54-1.49-1.05-1.99-1.53-1.5-2.22-3.5-3.33-5.25-.43-.68-.95-1.3-1.35-2-.33-.57-.78-1.22-.74-1.8.07-.95-.98-1.44-.77-2.37,0-.02-.27-.06-.36-.14-.3-.29-.57-.61-.88-.89-.2-.18-.44-.32-.66-.47-.09.08-.18.16-.27.24.28.6.55,1.19.83,1.79,0,0-.19.17-.16.26.1.27.34.48.43.75.14.42.07,1.09.34,1.26.96.61,1.19,1.56,1.57,2.5.31.77.65,1.72,1.27,2.11.73.45.87.8.41,1.69.4-.21.56-.3.74-.4.02.16-.02.36.06.51.96,1.9,1.96,3.78,3.22,5.51.44.61.9,1.21,1.36,1.85.04-.05.21-.25.39-.46.21.35.39.64.69,1.13.67-1.59-.66-2-1.14-2.8.24-.03.48-.06.54-.07ZM19.78,110.82c.1,0,.19.01.29.02,0-.46.1-.94-.02-1.36-.16-.55-.59-1.03-.72-1.59-.31-1.33-.54-2.68-.75-4.03-.06-.35.14-.74.06-1.08-.25-1.14-.67-2.26-.85-3.41-.37-2.37-.64-4.76-.93-7.15-.29-2.33-.57-4.66-.81-7-.07-.69.02-1.4-.03-2.1-.02-.34-.2-.67-.3-1-.95,2.28-.23,4.5-.23,6.71,0,.67.16,1.34.25,2.01.17,1.19.35,2.38.51,3.58.28,2.15.44,4.32.84,6.45.44,2.3,1.11,4.57,1.65,6.85.17.71.26,1.45.43,2.39.07.08.34.4.61.71ZM15.35,113.98c-.08.34-.19.57-.17.79.09.94.26,1.87.33,2.81.07,1.02.06,2.04.1,3.06.02.6,0,1.22.11,1.81.28,1.38.68,2.74.95,4.12.34,1.8.59,3.61.88,5.42.15,0,.3.01.45.02.08-.42.27-.87.2-1.26-.1-.51-.56-.97-.61-1.47-.13-1.39-.13-2.79-.18-4.19-.01-.26-.04-.52-.1-.77-.07-.29-.26-.57-.25-.84.03-.68.15-1.35.22-1.9.33-.37.85-.7.86-1.04.01-.48-.47-.96-.54-1.47-.2-1.36-1.75-2.13-1.51-3.7.06-.38-.43-.84-.74-1.39ZM32.46,65.47c.04.55.25,1.14.06,1.35-1.16,1.24-1.59,3.14-3.38,3.82-.06.02-.09.15-.1.23-.05.38-.09.77-.09.83.36.39.61.67.93,1.03.08-.05.45-.16.58-.4,1-1.81,2.07-3.59,2.88-5.48.68-1.59.76-1.82,2.46-1.57-1,.21-2.06.14-1.55,1.57.7-.36,1.4-.72,2.09-1.08-.09-.05-.18-.1-.27-.16.21-.53.42-1.05.68-1.72-.04-.04-.22-.21-.42-.4-.2.34-.35.61-.55.95-.25-.2-.66-.47-.64-.51.37-.7.8-1.36,1.25-2.08h-1.12c.1,1.46-1,1.89-1.89,2.39.08.23.14.44.2.59-.42.09-.78.17-1.23.26.37.16.61.26.86.36-.02.07-.04.15-.06.22-.25-.07-.5-.14-.69-.2ZM11.48,37.08v5.8c.07.03.14.07.22.1.34-1.07.68-2.14,1.02-3.21l.34.04c-.23-.55-.69-1.11-.64-1.63.09-.93-.35-1.05-.93-1.09ZM35.22,67.44c-.12-.09-.23-.18-.35-.27-1.27.01-1.06,1.47-1.82,2-.19.13-.29.51-.29.77,0,.23.21.47.33.7.16-.16.37-.29.47-.48.13-.24.11-.57.26-.79.44-.66.93-1.28,1.39-1.92ZM55.38,115.44c.5-.52.44-2.34-.21-3.05-.25-.27-.81-.25-1.3-.39.56,1.28,1.03,2.33,1.51,3.44ZM14.85,135.09c1.32.87.64,2.25,1.17,3.17l.3-.05c-.12-1.41-.24-2.82-.39-4.56-.46.62-.77,1.04-1.08,1.44ZM20.39,94.09c-.63-.13-1.01-.21-1.45-.3-.12.65-.21,1.18-.31,1.71.11.07.22.14.34.21.4-.46.81-.91,1.43-1.61ZM15.18,57.94c1.27.95-.67,2.16.18,3.19.97-2.17.89-3.14-.18-3.19ZM14.92,66.32c.28.73.56,1.44.83,2.16.08-.01.16-.03.24-.04-.05-.66-.1-1.33-.15-1.96-.31-.06-.59-.11-.93-.17ZM39.18,58.41c-.13-.1-.25-.2-.38-.29-.51.64-1.01,1.27-1.52,1.91.11.09.21.17.32.26l1.58-1.87ZM15.41,133.61c.09,0,.18-.02.27-.03-.03-.72-.07-1.43-.11-2.34-.42.36-.61.53-.69.6.19.64.36,1.21.54,1.77Z"/>
  <path d="M434.32,204.37c-.6-.49-.76-1.48-1.87-1.42-.45.02-.66-2.33-.25-2.84.32-.4.69-.76,1.24-1.36-.69.09-1.13.15-1.88.25.85-1.06,1.55-1.93,2.27-2.82-1.25-1.63-.9-3.52-.62-5.39.09-.6.15-1.2.25-1.79.14-.83.99-1.28,1.65-.78.5.38.84.98,1.29,1.44.34.35.74.65,1.02.88,11.71-9.39,21.46-20.31,29.58-32.69.13-.2.02-.55-.24-1.02-.15.18-.31.36-.46.55-.12.16-.19.38-.34.5-2.43,1.88-4.9,3.69-7.29,5.62-1.85,1.49-3.55,3.16-5.38,4.67-2.7,2.22-5.51,4.31-8.19,6.56-1.94,1.63-3.96,3.11-6.24,4.22-2.25,1.1-4.47,1.52-6.71-.02-.34-.23-.77-.34-1.16-.5-1.13-.46-1.37-1.49-.59-2.44.24-.29.41-.62.64-.96.24.05.58.12.91.21.27.07.53.17.97.31-.2-.36-.32-.58-.56-1,.45.28.71.43,1.05.64.02-.35.04-.59.04-.63-.9-.21-1.72-.4-2.53-.6-.1-.02-.21-.07-.28-.15-1.02-1.12-2.07-2.21-3.01-3.38-.42-.52-.63-1.21-1-1.97.47.19.76.31,1.31.52-.21-.5-.3-.79-.44-1.04-.61-1.07-.57-1.16.47-1.26-.11-.43-.29-.86-.33-1.3-.26-2.58.95-4.86,1.53-7.27.19-.79.35-1.59.4-2.4.18-2.82.24-5.65.47-8.47.19-2.38.56-4.75.81-7.13.2-1.9.27-3.81.48-5.7.27-2.39.56-4.79.97-7.17.64-3.76,1.4-7.5,2.05-11.26.48-2.75.91-5.52,1.28-8.29.35-2.57.57-5.16.9-7.73.28-2.25.63-4.49.95-6.74.12-.88.26-1.76.34-2.64.3-3.44.46-6.89.9-10.31.42-3.29,1.09-6.55,1.69-9.81.93-5.04,1.78-10.09,2.88-15.09.68-3.08.63-6.17.83-9.26.07-1.13.23-2.27.53-3.36.15-.56.74-1.45,1.06-1.42.79.07,1.74.4,2.25.97.87.96,1.55,2.16.94,3.6-.04.09-.04.28.01.31,1.14.73.55,1.85.6,2.79.18,3.98.37,7.96.42,11.94.03,2.32-.33,4.64-.31,6.97.02,3.33.24,6.65.32,9.98.06,2.45,0,4.91.02,7.37.07,9.27.22,18.54.17,27.8-.02,3.3-.53,6.6-.81,9.91-.16,1.88-.25,3.78-.46,5.65-.26,2.47-.53,4.94-.93,7.39-.39,2.4-.93,4.78-1.46,7.16-.49,2.2-1.06,4.38-1.59,6.57-.33,1.36-.51,2.77-1.05,4.05-.41.97-1.25,1.76-1.89,2.76.86-.63,1.7-1.27,2.57-1.87,2.1-1.43,4.15-2.96,6.34-4.23,3.09-1.79,6.22-3.56,9.48-5.01,2.42-1.08,4.87-2.24,7.68-2.2,1.96.03,3.42,1.13,4.96,2,1,.57,1.8,1.51,2.65,2.33,1.04,1.02,1.86,2.16,2.09,3.68.13.85.51,1.66.77,2.49.46,1.48.82,3,1.39,4.43,1.34,3.36.9,6.87.8,10.31-.17,5.51-1.48,10.74-5.22,15.05-2.06,2.37-4.11,4.79-6.37,6.97-2.88,2.78-6.36,4.7-10.02,6.29-2.04.89-4.01,1.97-6.11,2.69-2.69.92-5.48,1.55-8.23,2.3-1.6.44-3.19.87-4.79,1.29-1.72.45-3.44.87-5.16,1.31h-.43ZM445.95,71.69c-.12-.04-.25-.08-.37-.12-.36,1.1-.79,2.18-1.06,3.3-.25,1.03-.36,2.1-.46,3.15-.44,4.33-.85,8.67-1.3,13-.22,2.12-.5,4.23-.79,6.34-.22,1.61-.49,3.21-.72,4.82-.18,1.3-.32,2.61-.5,3.91-.26,1.86-.55,3.71-.8,5.57-.3,2.14-.55,4.29-.88,6.43-.36,2.38-.78,4.75-1.15,7.12-.6,3.79-1.26,7.58-1.75,11.39-.37,2.93-.53,5.89-.77,8.84-.23,2.88-.46,5.76-.66,8.64-.16,2.37-.27,4.74-.41,7.15.52-.23,1.15-.49,1.76-.79,1.38-.7,1.93-1.98,2.33-3.37.62-2.16,1.12-4.37,1.9-6.47,1.03-2.77,1.73-5.61,2.25-8.51.07-.39.39-.73.62-1.16-.04-.14-.23-.45-.19-.73.18-1.26.44-2.5.66-3.75.57-3.31,1.32-6.6,1.65-9.94.41-4.2.48-8.43.7-12.65.11-2.12.26-4.24.31-6.36.05-2.32.01-4.65.01-7.04.08.22.14.39.24.65-.27-4.11-1.01-8.11-.61-11.99-.14-.54-.34-.98-.34-1.42,0-1.68.46-3.36-.22-5.05-.28-.71.32-1.53,0-2.39-.25-.68-.13-1.49-.16-2.24-.04-.86-.17-1.73-.06-2.58.16-1.26.5-2.5.76-3.75ZM442.37,194.84c.02.09.03.18.05.27,1.01-.24,2.02-.46,3.02-.71,1.71-.42,3.49-.68,5.1-1.34,2.8-1.15,5.5-2.55,8.24-3.86,2.46-1.17,4.64-2.78,6.53-4.71,2.01-2.05,3.88-4.24,5.74-6.42,2.52-2.94,3.73-6.4,3.78-10.27,0-.59-.1-1.18-.11-1.77-.02-1.8,0-3.6,0-5.4-.11-.03-.21-.06-.32-.09-.22.18-.48.34-.67.56-1.6,1.87-3.2,3.74-4.77,5.64-3.13,3.78-6.34,7.5-9.34,11.39-2.85,3.68-6.31,6.71-9.69,9.84-2.5,2.31-5.04,4.58-7.57,6.86ZM459.59,153.97s-.08-.1-.12-.15c-.28.12-.58.21-.84.36-2.19,1.23-4.38,2.45-6.54,3.72-1.82,1.08-3.63,2.18-5.4,3.35-1.9,1.25-3.73,2.63-5.64,3.87-1.41.92-2.26,2.96-1.56,4.48,6.73-5.23,13.42-10.44,20.11-15.64ZM445.15,171.51c-.01-.05-.03-.1-.04-.15l4-2.95c-1.73-.04-2.74,1.05-3.79,2-.44-.02-1.03-.06-1.2.19-.25.37-.2.94-.26,1.34.55-.18.93-.3,1.3-.43ZM444.74,167.54c-.08-.08-.16-.16-.24-.25-2.05,1.45-4.11,2.9-6.38,4.51.46-.05.89.04,1.14-.13,1.3-.9,2.57-1.86,3.83-2.81.56-.42,1.1-.87,1.64-1.31ZM466.33,151.2c-.05-.07-.11-.15-.16-.22-1.78.83-3.56,1.65-5.35,2.48.04.1.08.19.12.29.88-.32,1.79-.58,2.63-.98.95-.46,1.85-1.04,2.76-1.56ZM451.68,166.55c-.04-.14-.07-.28-.11-.41-.73.12-1.48.19-2.19.4-.17.05-.32.56-.27.83.03.15.56.37.73.28.64-.3,1.23-.72,1.84-1.1ZM469.77,148.38c-.48-.4-.79-.77-1.19-.97-.33-.17-.76-.15-1.19-.22.48.56.73,1.03,1.12,1.27.37.22.96.67,1.26-.08ZM439.54,194.19c.37.25.62.53.91.59.24.06.54-.13.88-.23v-.85c-.55.15-1.01.28-1.79.49ZM441.59,171.94c-.1.03-.21.07-.31.1.12.32.2.66.37.94.04.06.56-.03.6-.14.16-.42.21-.89.31-1.34l-.31-.06c-.11.33-.22.66-.39,1.17-.15-.36-.21-.51-.28-.67Z"/>
  <path d="M780.21,146.07c-.07.51-.09,1.03-.23,1.52-.23.83-.44,1.7-.85,2.45-.17.32-.89.63-1.21.52-.41-.15-.83-.69-.93-1.14-.45-2.01-.79-4.05-1.37-6.1-.26.98-.52,1.95-.78,2.93-.11-.03-.21-.05-.32-.08.6-3.78,1.2-7.56,1.8-11.33-.02-.02-.04-.03-.06-.05-.27.71-.57,1.42-.81,2.14-.18.53-.3,1.08-.46,1.62-.04.13-.21.29-.17.38.53,1.26-.4,2.3-.49,3.48-.06.85-.36,1.7-.65,2.52-.13.38-.49.67-.88.96.62-1.47.18-2.79-.37-4.39-.12.42-.25.63-.2.75.45.95-.09,1.68-.48,2.46-.13.27-.01.65-.12.94-.35.92-.74,1.83-1.16,2.71-.06.13-.46.22-.6.15-.34-.18-.63-.47-1.17-.9-.96-3.4-.94-7.22-.76-11.04.11-2.3.28-4.6.34-6.9.06-2.32.06-4.64,0-6.96-.04-1.49-.08-3.02-.46-4.45-.46-1.74-1.2-3.42-1.97-5.05-.98-2.11-2.93-2.92-5.02-3.58-1.77-.56-3.44-1.43-5.16-2.14-2.2-.91-4.43-.8-6.65-.08-.34.11-.66.43-.86.74-1.62,2.4-2.46,5.1-3.08,7.92-.49,2.26-1.24,4.45-1.85,6.68-.16.58-.22,1.18-.28,1.78-.25,2.31-1.73,3.67-3.66,4.61-.95.46-1.42,1.12-1.8,2.1-1.01,2.68-2.3,5.22-5.14,6.47-.15.07-.32.1-.63-.01.25-.29.49-.59.87-1.04.55-3.08,1.15-6.42,1.74-9.76-.53-.06-1.21.82-1.33,1.53-.25,1.48-.63,2.94-.96,4.41-.12-.02-.24-.04-.36-.06,0-.17-.03-.34-.02-.5.11-1.48.05-3,.39-4.42.31-1.27,1.09-2.42,1.62-3.63.22-.5.32-1.04.52-1.69.39-.69.91-1.53,1.36-2.4.35-.66.54-1.42.94-2.04.48-.76,1.24-1.36,1.65-2.15.67-1.28,1.17-2.66,1.72-4.01.04-.11-.1-.3-.11-.32-.71.81-1.47,1.59-2.12,2.46-.45.6-.73,1.34-1.13,1.98-1.15,1.85-2.39,3.65-3.47,5.55-.71,1.24-1.25,2.57-1.76,3.91-.55,1.42-1.03,2.88-1.42,4.35-.28,1.05-.34,2.17-.55,3.24-.19.96-.41,1.91-.69,2.85-.06.19-.43.29-.78.51-.16-.57-.35-1.11-.46-1.66-.65-3.26-.75-6.57-.91-9.89-.13-2.8-.68-5.59-.79-8.39-.11-2.73.05-5.48.2-8.21.12-2.2.45-4.39.61-6.59.14-1.87.09-3.75.25-5.62.24-2.95.6-5.89.89-8.84.09-.96.13-1.92.21-3.06.92.31.53.77.28,1.25.31.04.59.08.99.13,0-.32-.08-.63.02-.86.12-.3.34-.73.59-.79.72-.18,1.49-.15,2.22-.28,1.19-.22,1.84.47,2.27,1.36.59,1.22,1.24,2.46,1.49,3.76.14.7-.34,1.67-.81,2.32-.95,1.29-.97,2.79-1.21,4.23-.46,2.69-.76,5.41-1.13,8.11-.21,1.51-.5,3.01-.61,4.53-.2,2.72-.33,5.45-.4,8.18-.02.94.22,1.89.34,2.84l.31.04c.39-.6.77-1.2,1.16-1.8,2.09-3.17,4.13-6.36,6.27-9.5,1.86-2.73,3.79-5.42,5.77-8.07,1-1.34,2.14-2.58,3.29-3.81,1.18-1.26,2.32-2.61,3.69-3.64,2.08-1.56,4.28-3.13,6.93-3.44,2-.23,4.08-.04,6.1.16,1.27.13,2.53.58,3.76,1,3.68,1.27,5.16,4.1,5.21,7.48.05,3.57-.07,7.17-.46,10.72-.2,1.82.28,3.33.79,4.94.81,2.62,1.53,5.27,2.34,7.89.22.69.63,1.34,1,1.97,1.08,1.86,1.44,3.8,1.2,5.96-.17,1.52.08,3.08.2,4.62.09,1.1.31,2.18.4,3.27.11,1.39.15,2.79.24,4.18,0,.11.13.22.2.33v4.77ZM766.62,105.49c.02-.1.03-.2.05-.3-.55-.96-1.03-1.97-1.66-2.88-.51-.72-1.13-1.41-1.84-1.94-.43-.32-1.15-.23-1.69-.45-1.78-.72-3.54-.69-5.28.06-1.41.61-2.74,1.51-4.42,1.28.35.19.69.32,1.05.37,1.49.21,3.02.24,4.46.63,1.86.51,3.63,1.34,5.45,1.98,1.28.45,2.58.83,3.88,1.24ZM761,106.95l-.16.22c.43.27.83.57,1.28.79,1.21.59,2.45,1.11,3.65,1.72.38.19.63.65,1.02.82,1.38.63,2.47,1.6,3.14,2.92,1.05,2.07,1.83,4.3,2.99,6.3,1.29,2.22,2.75,4.32,3.99,6.59.88,1.63.84,3.11.5,4.74-.07.36-.16.72-.3,1.34.35-.28.6-.38.63-.52.17-.83.44-1.67.39-2.5-.09-1.43-.21-2.9-.66-4.25-.37-1.1-1.33-1.99-1.85-3.06-1.05-2.15-2.72-3.98-3.26-6.42-.2-.9-.75-1.77-1.29-2.55-.58-.84-1.28-1.64-2.03-2.33-.94-.86-1.97-1.64-3.02-2.37-.29-.2-.8-.09-1.2-.14-.19-.02-.4-.04-.55-.13-.48-.31-.87-1.05-1.54-.23-.06-.32-.1-.55-.13-.7-.59-.09-1.09-.17-1.59-.24ZM768.8,114.1c0,.09,0,.17,0,.26-.36-.02-.73-.05-1.21-.08.17.46.31.87.48,1.27.5,1.14,1,2.28,1.52,3.41.19.43.49.81.63,1.25.28.89.49.95,1.14.33.26.15.48.27.95.53-.16-.41-.19-.51-.24-.6-.48-.7-.38-1.95-1.76-1.82-.16.01-.35-.39-.53-.6.06-.06.11-.11.17-.17.22.11.44.22.67.33.09-.05.19-.11.28-.16-.59-1.45-1.16-2.91-1.77-4.36-.06-.15-.31-.28-.49-.3-.09-.01-.21.24-.31.38.16.11.32.21.48.32ZM752.28,100c-.99-.7.02-1.06.07-1.59.1.01.21.03.31.04v.96c.69-.99,1.32-1.9,2.12-3.05.07.63.1.92.13,1.21.29-.15.52-.28.76-.41-.21-.18-.4-.35-.64-.55,1.1-.42,2.07-.75,2.91.35.15.2.78.23,1.04.08.29-.17.4-.63.59-.97-.26,0-.52.03-.78-.02-.16-.03-.32-.14-.46-.25-.76-.64-2.32-.48-3.15.07-.58.39-.96,1.08-1.37,1.3-1.2.65-2.18,1.36-2.71,2.63-.03.07-.2.08-.27.15-.82.79-1.64,1.59-2.57,2.5,1.15-.27,2.13-.5,2.91-.68-.23-.21-.55-.49-.95-.86.84-.38,1.44-.65,2.07-.93ZM751.08,97.08c-.14-.1-.27-.2-.41-.3-1.02,1.18-2.07,2.34-3.06,3.55-1,1.23-1.93,2.52-2.89,3.79l.12.27c.92-.56,1.97-.98,2.73-1.71.6-.58.85-1.53,1.32-2.46,1-.08,1.53-.77,1.11-1.5.39-.61.73-1.13,1.06-1.65ZM767.95,98.37c.14-.06.28-.12.43-.18-.16-.75-.18-1.57-.52-2.23-.78-1.5-3.7-2.76-5.41-2.55-.71.09-1.43.01-2.15.01-.02.11-.04.22-.06.33,3.28.36,6.31,1.14,7.72,4.61ZM751.61,106.05c2.36.16,4.83.33,7.29.49.07-.08.14-.15.21-.23-.36-.33-.67-.82-1.1-.96-1.51-.47-3.06-.37-4.58-.02-.64.15-1.24.47-1.84.7ZM772.29,122.91c.11-.04.21-.08.32-.12.23.21.5.38.68.63.44.6.83,1.23,1.24,1.85.12-.08.23-.15.35-.23-.77-1.28-1.55-2.55-2.41-3.98-.07.73-.12,1.29-.17,1.85ZM775.13,134.39q-.91-.58-1.4,1.99c1.03.19,1.14-.09.64-1.68.21-.08.42-.17.76-.31ZM772.86,141.54c.52-1.17.23-2.07-.43-2.05.15.69.29,1.37.43,2.05Z"/>
  <path d="M167.04,107.43c0,.43.13.92-.03,1.29-.95,2.27-1.84,4.57-2.97,6.75-1.21,2.33-2.57,4.61-4.04,6.79-1.35,2-2.92,3.85-4.42,5.74-1.02,1.29-2.22,2.46-3.1,3.83-.79,1.22-1.16,2.7-1.87,3.98-1.38,2.45-2.56,5.06-4.78,6.92-1.4,1.18-4.13,1.31-5.81.44-.64-.33-1.55-.26-2.08-.68-1.14-.9-2.14-1.97-3.15-3.03-2.63-2.77-3.44-6.47-4.89-9.83-.72-1.67-1.05-3.5-1.57-5.25-.13-.45-.34-.87-.45-1.17-.59.88-1.03,1.87-1.75,2.56-1.41,1.32-1.88,3.13-2.79,4.71-1.02,1.77-2.11,3.49-3.17,5.24-.15-.09-.29-.17-.44-.26,1.08-1.74,2.15-3.47,3.23-5.21-1.11.71-1.9,1.57-2.39,2.82-.48,1.22-1.33,2.32-2.13,3.4-1.48,2.01-2.99,4.01-4.6,5.92-.86,1.02-1.86,1.97-2.96,2.71-1.6,1.08-3.33,1.98-5.05,2.88-1.29.67-2.63.79-4.08.28-1.42-.5-2.92-.78-4.4-1.11-.9-.2-1.88-1.23-2-2.2-.02-.13-.04-.31-.13-.38-1.92-1.53-2.46-3.8-3.08-5.99-.31-1.08-.3-2.25-.57-3.34-.51-2.09-1.21-4.13-1.65-6.23-.22-1.07-.35-2.16-.56-3.25-.37-1.88-.41-3.83-.49-5.75-.12-2.93-.28-5.86-.2-8.79.1-3.79.28-7.59.67-11.35.23-2.15.9-4.26,1.49-6.36.32-1.15,1.12-1.93,2.42-2.11.3-.04.65-.49.79-.83.35-.83.54-1.74.9-2.56.32-.71.72-1.04,1.76-.99,2.5.12,3.69,1.66,4.35,3.61.36,1.06.19,2.49-.21,3.59-.74,2.04-.8,4.16-1.14,6.24-.27,1.64-.46,3.3-.7,4.95-.2,1.37-.41,2.73-.61,4.1-.49,3.25-.99,6.51-1.45,9.76-.16,1.16-.21,2.33-.28,3.5-.22,3.27.18,6.46,1.15,9.6.25.81.32,1.67.47,2.51,2.8,1.01,5.25-.21,7.56-1.61,1.81-1.1,3.55-2.38,5.09-3.82,1.94-1.82,3.67-3.87,5.47-5.84.91-1,1.83-2.01,2.66-3.09,1.58-2.06,2.11-4.59,2.95-6.98.43-1.22.78-2.47,1.16-3.7.09.02.18.05.26.07-.62,2.22-1.23,4.43-1.87,6.72.33-.38.84-.71.96-1.14.52-1.77.92-3.58,1.37-5.37.14-.56.35-1.11.45-1.67.33-1.85.75-3.7.88-5.57.15-2.14,0-4.29.04-6.44.05-2.88.13-5.75.22-8.62.03-.89.12-1.78.2-2.85-.16.25-.23.37-.47.76-.04-.73-.05-1.21-.1-1.67-.3-2.55-.6-5.11-.93-7.66-.19-1.44.35-2.06,1.8-2.08.35,0,.71-.24,1.05-.4,1.13-.55,2.24-.35,3.35.06.73.27,1.58.38,2.14.85.52.44.73,1.25,1.13,2,1.11-.85,1.71.66,2.57,1.15.49.28,1.23.67,1.47,1.18.6,1.29.99,2.67,1.42,4.03.27.84-.02,1.73.45,2.62.33.62.06,1.56.06,2.36-.16.03-.31.06-.47.09-.22-.81-.74-1.67-.61-2.41.33-1.88-.73-3.27-1.32-4.83-.13-.35-.36-.67-.66-.99,1.03,7.28.05,14.53-.31,21.78l.38.05c.66-2.84,1.31-5.68,1.98-8.58.09.13.28.27.26.39-.27,2.87-.48,5.75-.88,8.6-.16,1.17-.79,2.28-1.1,3.44-.21.78-.35,1.6-.36,2.4-.04,3.36-.05,6.72,0,10.08.05,3.78.68,7.47,1.78,11.09.46,1.52.91,1.85,2.28,1.91.13,0,.27,0,.38-.04,3.02-1.2,5.3-3.1,6.49-6.26,2.4-6.41,5.03-12.73,7.35-19.16,1.59-4.41,2.82-8.95,4.25-13.42.17-.53.57-.99.86-1.48,0,0-.03.03-.03.03.13-.06.26-.11.53-.23-.21.77-.4,1.45-.62,2.24-.2-.22-.34-.38-.46-.52-.31.87.14,1.98-.83,2.67-.02.02.03.21.1.28.56.59.43,1.13-.13,1.6-.07-.19-.16-.42-.24-.65-.06,0-.12.02-.18.03-.16,1.41-.32,2.82-.49,4.29-.13-.11-.3-.25-.5-.42-.44,1.48-.87,2.93-1.31,4.44.24-.03.39-.04.66-.07-.62,1.21-2.23,2.05-1.31,3.71-1.33,1.45-1.78,3.31-2.34,5.14-.34,1.14-.74,2.27-1.16,3.39-.5,1.34-1.04,2.67-1.57,4-.5,1.27-1.01,2.54-1.64,4.12,1.4-1.13,2.42-2.26,2.99-3.63,1.25-2.98,2.41-6.02,3.46-9.08,1.05-3.06,1.95-6.17,2.87-9.27.2-.67.37-1.23,1.25-1.01-.66-2.55.69-4.42,1.71-6.33-.07-.28-.25-.59-.19-.84.26-1.12.56-2.23.9-3.33.88-2.86,1.53-5.76,1.98-8.72.16-1.05.27-2.11.46-3.15.04-.21.36-.38.58-.53.15-.11.34-.15.64-.28-.52-.13-.85-.21-1.17-.29.38-.26.76-.52,1.34-.93,0,.84.03,1.46,0,2.08-.09,1.66-.04,3.36-.37,4.97-.45,2.21-1.2,4.37-1.82,6.55-.6,2.1-1.19,4.2-1.81,6.29-.89,2.96-1.82,5.91-2.72,8.87-.62,2.02-1.19,4.05-1.83,6.06-.33,1.04-.74,2.05-.97,3.26.19-.11.44-.17.55-.33.63-.98,1.35-1.93,1.82-2.99.62-1.39,1.74-2.45,2.34-3.82.72-1.63,1.35-3.31,1.87-5.02.6-1.98,1.07-4.01,1.54-6.04.28-1.22.31-2.4-.1-3.67-.2-.62.26-1.86.81-2.21.54-.34,1.73-.17,2.36.23,1.43.9,2.75,1.97,3.07,3.89.11.69,1.12,1.19.61,2.3-.26-.55-.46-.98-.68-1.45-.26.22-.52.44-.96.81-.18-.2-.37-.39-.7-.75-.22.64-.61,1.32-.68,2.02-.25,2.65-.51,5.29-1.49,7.79-.93,2.35-1.81,4.73-2.88,7.02-1.73,3.7-4.13,6.98-6.67,10.17-1.05,1.32-1.96,2.75-2.94,4.13-.09.13-.28.2-.43.29-.18.11-.49.17-.54.32-.48,1.51-1.74,2.5-2.52,3.88-.07-.22-.13-.39-.19-.59-.05.06-.12.1-.12.14.05.41.12.82.21,1.46,2.12-2.33,4.04-4.36,5.87-6.48,1.02-1.19,1.9-2.5,2.8-3.79,1.23-1.77,2.43-3.56,3.61-5.35.47-.72.89-1.47,1.28-2.23,1.03-2.01,2.02-4.04,2.7-6.21.17-.56.55-1.05.83-1.58l-.03-.03ZM148.6,136.16c0,.33.04.66-.01.99-.05.33-.2.66-.3.98.13.05.26.1.39.15.96-1.82,1.92-3.64,2.88-5.46-.11-.06-.22-.12-.32-.19-.39.58-.72,1.21-1.18,1.73-.52.59-.33,1.76-1.48,1.82.1-.29.2-.58.3-.88-.08-.04-.17-.08-.25-.12-1.65,1.56-3.61,2.83-4.51,5.04.27.25.49.45.75.69-.37.27-.63.47-1.15.86.56-.03.98.06,1.1-.08.54-.65,1-1.36,1.47-2.06.78-1.15,1.54-2.31,2.31-3.47ZM164.41,99.08c-.07.12-.41.46-.52.86-.35,1.27-.57,2.57-.91,3.84-.31,1.16-.8,2.29-1.02,3.47-.12.64.61,1.61-.85,1.43-.05,0-.15.23-.19.36-.5,1.8-.91,3.62-2.33,5.06.43.03.76.05,1.15.07-.38.8-.68,1.43-.98,2.08-.19-.29-.4-.59-.6-.9-.2.21-.35.37-.53.57.27.22.54.44.87.71-.46.32-.87.83-1.32.87-1.08.11-.94.71-.8,1.45-.15.01-.4-.04-.49.06-.26.26-.48.58-.67.9-.03.06.15.25.24.37.14-.23.24-.5.42-.69.17-.18.43-.27.64-.4l.12.18c-.52.69-1.05,1.39-1.72,2.28.08-.45.11-.66.16-.91-.45.09-1.22-.37-1.02.72.02.13-.27.32-.41.47-.78.86-1.56,1.72-2.33,2.59-.88,1-1.66,2.11-2.65,2.97-.57.49-.7.83-.53,1.51.07.28-.2.7-.41.98-.4.54-.86,1.04-1.3,1.55.09.08.18.16.26.25.81-.67,1.67-1.29,2.43-2.01.54-.51.92-1.18,1.43-1.72.85-.9,1.81-1.71,2.61-2.64,1.13-1.31,2.25-2.63,3.2-4.07,1.29-1.95,2.45-3.99,3.59-6.03.94-1.67,1.8-3.39,2.64-5.11.41-.84.75-1.73,1.03-2.63.29-.95.45-1.93.68-2.9.28-1.16.62-2.31.85-3.49.29-1.46.5-2.95.74-4.41-.39-.15-.83-.32-1.32-.51-.05.88-.09,1.71-.15,2.83ZM120.52,122.74c.37-.28.81-.49,1.07-.83.95-1.27,1.88-2.55,2.74-3.88.78-1.2,1.5-2.44,2.19-3.7.79-1.45,1.5-2.94,2.27-4.4.61-1.16.44-2.49-.65-3.38-.22,1.04-.42,1.97-.62,2.92-.06-.17-.12-.34-.15-.41-.67,1.58-1.37,3.21-2.03,4.75-.28-.02-.73-.06-1.18-.1,0,.06-.02.12-.02.17.31.14.63.28,1.05.47-.45.51-.79.89-1.12,1.26.15.14.33.29.55.5-.91.47-1.75.91-2.58,1.34.04.07.07.13.11.2.28.02.57.05.84.07-.31.71-.62,1.4-.92,2.09-.2-.04-.42-.09-.39-.09-.35.58-.59,1.36-.87,1.37-.75.04-.45.87-.93.98-1.06.25-.81,1.16-1.06,1.82.08.04.16.08.25.12.2-.43.41-.86.61-1.28.06.02.12.05.19.07-.31.86-.61,1.72-.92,2.58.11.05.22.09.32.14.57-.81,1.15-1.63,1.72-2.44-.28-.21-.46-.34-.47-.35ZM119.72,128.51c.72-.57,1.38-.93,1.83-1.48,1-1.24,1.92-2.56,2.83-3.88.84-1.21,1.69-2.42,2.43-3.69.98-1.68,1.87-3.41,2.77-5.13.09-.18-.04-.48-.07-.72-.2.08-.39.17-.59.22-.85.25-.44,1.05-.69,1.55-.5,1.01-1.08,2-1.69,2.95-1.22,1.9-2.49,3.77-3.75,5.65-.98,1.46-1.98,2.91-3.07,4.52ZM119.01,131.59c1.27-.25,1.16-1.35,2.05-1.79,1.06-.52,1.82-1.77,2.56-2.81,2.07-2.93,4.08-5.89,6.05-8.89.24-.37.12-.97.17-1.46-.13-.01-.25-.03-.38-.04-.49.88-.95,1.79-1.49,2.65-.66,1.05-1.36,2.06-2.07,3.07-1.35,1.89-2.72,3.77-4.1,5.65-.29.39-.54.93-.93,1.09-1.14.48-.88,1.72-1.85,2.53ZM142.2,139.47c.21-.32.34-.62.56-.84,1.31-1.29,2.64-2.54,3.95-3.83.56-.56,1.08-1.16,1.61-1.74-.1-.11-.21-.22-.31-.33-1.5,2.18-4.58,2.29-5.88,4.75-.25.46-.72.81-1.13,1.18-.36.33-.74.65-1.17.89-.43.24-.92.36-1.38.53.03.11.05.22.08.34.32-.03.64-.06.97-.08.01.14.02.32.04.5.26-.06.58-.05.78-.2.6-.44,1.15-.95,1.69-1.41-.03-.03.1.12.19.24ZM97.58,140.67c-.02.79.12,1.65.94,2.08,1.48.78,2.79-.17,4.11-.66.18-.07.25-.43.35-.6-1.81-.28-3.5-.54-5.39-.83ZM104.94,145.99c-.01.1-.03.19-.04.29.37.03.81.21,1.1.07.75-.37,1.48-.81,2.13-1.34,1.39-1.15,2.78-2.31,4.06-3.57.91-.89,1.65-1.95,2.45-2.95.12-.15.12-.38.18-.58-.44.14-.7.36-.95.61-1.76,1.76-3.47,3.56-5.3,5.26-1.04.97-2,2.18-3.63,2.22ZM135.06,132.77c-.09.08-.18.16-.26.24.31.48.61.97.95,1.5.35.12.8.28,1.25.44.05-.09.11-.17.16-.26-.7-.64-1.4-1.28-2.1-1.92ZM130.12,111.35c.24.44.49.89.84,1.55v-3.66c-.35.87-.58,1.45-.84,2.11ZM99.68,94.93c-.65-.38-1.01-.59-1.42-.83-.1.36-.21.75-.41,1.46.72-.25,1.18-.41,1.84-.63ZM102.92,147.41c.34-.73.58-1.23.81-1.71-1.31-.12-1.37-.05-.81,1.71ZM139.19,137.46c.54-.25.96-.44,1.38-.64l-.24-.35c-.43.1-.87.17-1.28.33-.05.02.11.55.14.66Z"/>
  <path d="M283.49,96.31c.79-1.69,1.53-3.41,2.38-5.07,2.27-4.44,4.78-8.75,7.84-12.7,2.55-3.31,5.13-6.6,7.84-9.77,2.85-3.35,6.27-5.99,10.33-7.79,2.75-1.22,5.1-.56,7.46.98,2.33,1.52,3.99,3.67,5.75,5.73,1.38,1.61,2.86,3.15,4.07,4.89,2.56,3.69,3.39,7.81,2.66,12.25-.54,3.28-1.11,6.56-1.5,9.87-.2,1.68,0,3.4-.06,5.11-.06,1.86-.22,3.71-.31,5.56-.02.55.11,1.11.1,1.66-.05,2.23-.28,4.46-.18,6.67.16,3.42.44,6.84.89,10.22.23,1.76,1.03,3.43,1.41,5.18.57,2.56,1.66,4.82,3.23,6.9.44.58.72,1.29.96,1.98.13.36.18,1.05,0,1.16-.54.34-1.32.8-1.82.63-1.29-.42-2.59-.97-3.18-2.44-.27-.67-.82-1.23-1.18-1.88-.11-.2,0-.51,0-.77.17.18.37.34.51.54.43.64.83,1.3,1.25,1.95.12-.06.24-.12.36-.18-.13-.36-.21-.75-.4-1.08-.66-1.18-1.36-2.35-2.11-3.63-.15-.02-.51-.07-.76-.1.11-.28.31-.55.27-.78-.04-.26-.26-.53-.48-.69-.08-.06-.38.18-.51.24-.07-.65-.17-1.5-.23-2.08-.41-.35-.78-.51-.84-.75-.37-1.39-.67-2.81-.97-4.11-.08.31-.28.82-.33,1.33-.24,2.34-.43,4.68-.68,7.02-.18,1.69-.38,3.39-.7,5.05-.11.59-.61,1.11-1.14,1.55v-3.01c-.53.65-1.03,1.33-1.61,1.93-.22.23-.61.29-.92.43-.13-.32-.26-.65-.39-.97-.03-.09-.05-.18-.11-.43-.27.42-.47.73-.65,1.02-1.7-.8-1.36-2.38-1.19-3.73.41-3.26,1.02-6.5,1.51-9.76.46-3.01.9-6.03,1.29-9.05.34-2.59.55-5.19.89-7.77.62-4.56,1.32-9.12,1.94-13.68.48-3.52.89-7.04,1.3-10.57.18-1.57.28-3.15.41-4.72,0-.06-.12-.13-.27-.29-.26,1.3-.51,2.51-.75,3.71h-.15c-.11-2.31-.21-4.62-.32-6.94-.3-.08-.59-.15-1.17-.31,1.45-.51,1.14-1.06.41-1.58-.44-.31-.66-1.3-1.41-.63.39.66.77,1.3,1.25,2.1-2.56-.06-4.61.85-6.44,2.22-1.33.99-2.54,2.14-3.81,3.2-1,.83-2.04,1.62-3.03,2.47-.36.31-.58.77-.91,1.12-1.85,1.97-3.69,3.94-5.57,5.89-.81.83-1.58,1.63-1.96,2.8-.2.61-.92,1.04-1.28,1.63-.95,1.58-1.86,3.18-2.73,4.81-.89,1.65-1.7,3.35-2.57,5.01-.15.29-.44.51-.5.57,0,.59.12,1.04-.02,1.38-1.59,3.83-3.07,7.7-3.95,11.77-.11.5-.62.9-.87,1.39-.2.38-.3.82-.24,1.31.1-.34.2-.68.3-1.03.09.02.17.04.26.06-.11.56-.21,1.12-.33,1.68-.54,2.42-1.11,4.85-2.95,6.67-.79.78-1.75,1.37-2.6,2.09-.2.17-.4.49-.4.74.04,2.18.23,4.37.15,6.55-.06,1.64-.44,3.28-.72,4.91-.04.25-.33.47-.62.85,0-1.45.01-2.67,0-3.9,0-.39-.08-.77-.13-1.16-.11-.95-.29-1.91-.32-2.86-.04-1.05.02-2.1.12-3.14.13-1.41.38-2.81.48-4.23.08-1.11.01-2.23,0-3.34,0-.64-.13-1.29-.04-1.92.19-1.26.55-2.49.75-3.74.18-1.09.24-2.2.37-3.29.04-.37.1-.75.22-1.11.36-1.12.74-2.23,1.11-3.35-.38-.05-.65-.08-.91-.12.21-.21.43-.41.64-.62.21-.2.56-.39.59-.61.08-.68.03-1.37.03-2.18.19.1.32.17.46.24q.51-1.17-.2-1.19c.23-.7.45-1.4.59-1.85.36-.34.83-.56.84-.81.17-2.56,2.02-4.35,2.98-6.54.35-.81.92-1.53,1.21-2.36.11-.31-.28-.79-.44-1.2,1.34-1,1.18-3.21,2.84-3.66.13-.56.17-.94.32-1.28.29-.69.64-1.36,1.06-2.22.33-.42.76-1.09,1.31-1.62.99-.97,1.3-2.5,2.64-3.18.08-.04.12-.18.14-.28.16-.8.64-1.34,1.23-1.89.74-.68,1.31-1.56,1.91-2.28-.02-.07.04.11.1.3.05-.04.09-.06.12-.1.26-.34.5-.69.77-1.02.53-.64,1.05-1.3,1.63-1.9.84-.88,1.65-1.8,2.59-2.56,1.24-1,2.6-1.86,3.89-2.8.77-.56,1.53-1.14,2.2-1.65-1.13-.2-2.47.01-3.63.74-1.35.85-2.61,1.84-3.88,2.81-.24.18-.34.54-.59.72-.32.33-.62.67-.96.98-.45.41-.96.76-1.39,1.19-1,1.03-2.04,2.02-2.91,3.16-1.97,2.58-3.84,5.23-5.77,7.84-.24.33-.64.55-.86.89-.79,1.27-1.51,2.6-2.3,3.87-.9,1.44-1.85,2.84-2.76,4.27-.14.23-.2.51-.3.77-.23.6-.34,1.29-.71,1.78-.69.91-1.03,1.91-1.36,2.97-.44,1.41-.96,2.83-1.67,4.11-.72,1.29-.7,2.76-1.29,4.05-.14.32-.39.59-.75,1.1.51,1.35-.33,2.75-.95,4.19-.12.29-.2.6-.25.91-.36,2.13-.76,4.26-1.05,6.39-.09.64.23,1.33.16,1.98-.23,2.33-.61,4.64-.79,6.97-.08,1.05.24,2.12.27,3.19.03,1.03-.04,2.06-.12,3.09-.12,1.49-.25,2.98-.44,4.47-.07.54-.35,1.05-.52,1.54-1.29.14-1.44-.51-1.44-1.53,0-2.47-.17-4.94-.18-7.41,0-2.16.2-4.32.16-6.48-.06-3.15-.26-6.3-.38-9.45-.05-1.45-.02-2.9-.06-4.35-.03-1.28-.19-2.57-.16-3.85.11-4.49.29-8.97.41-13.46.04-1.46-.02-2.93.02-4.39.02-.71.23-1.43.23-2.14,0-1.94-.02-3.87-.1-5.81-.07-1.71-.23-3.42-.34-5.13-.09-1.36-.1-2.72-.24-4.07-.23-2.24-.56-4.46-.81-6.7-.13-1.17-.22-2.35-.25-3.53-.16-6.15-.35-12.3-.42-18.45-.04-3.38.1-6.77.21-10.16.03-.95.07-1.99.49-2.8.44-.84,1.26-1.55,2.04-2.14,1.67-1.28,3.42-.9,4.85.77.61.71,1.52,1.17,1.18,2.35-.02.07.56.24.76.46.27.31.6.7.6,1.06,0,.6-.46.43-.93.41-1.68-.06-2.16.91-1.35,2.47.14.27.18.62.15.92-.19,1.95-.44,3.89-.62,5.83-.12,1.32-.15,2.64-.24,3.96-.27,3.79-.61,7.57-.82,11.36-.09,1.62.11,3.26.16,4.89.05,1.62,0,3.24.14,4.85.26,3.1.68,6.2.94,9.3.17,2.04.21,4.09.23,6.13.03,3.76,0,7.52,0,11.28v.71c.08,0,.15.02.23.03ZM321.63,71.44c-.2-.42-.26-.68-.41-.85-.71-.74-1.43-1.47-2.17-2.18-1.25-1.21-2.4-1.36-3.83-.61-2.4,1.25-4.55,2.84-6.42,4.77-2.09,2.16-4.21,4.33-6.03,6.71-2.72,3.55-5.24,7.26-7.72,10.98-1.12,1.68-2.02,3.53-2.89,5.37-1.34,2.86-2.7,5.72-3.79,8.68-1.04,2.8-1.79,5.71-2.57,8.59-.28,1.03-.25,2.14-.36,3.21.46-.35.77-.69.83-1.08.4-2.27,1.32-4.36,2.08-6.51.25-.71.11-1.57.15-2.36,0-.05.08-.1.18-.23.13.19.24.35.4.59.09-.33.32-.69.22-.84-.55-.84.07-1.29.51-1.82.13-.16.29-.32.36-.51.28-.85.42-1.77.81-2.57.63-1.27,1.44-2.45,2.12-3.69.51-.92.88-1.93,1.45-2.81,1.16-1.77,2.4-3.5,3.65-5.21,1.18-1.63,2.29-3.34,3.66-4.8,3.51-3.75,7.27-7.25,11.29-10.45.82-.65,1.73-1.23,2.69-1.63,1.78-.74,3.61-1.48,5.78-.76ZM287.37,118.04c.13.05.27.09.4.14,1.97-5.64,3.67-11.38,6.39-16.75,2.68-5.31,6.17-10.02,10.02-14.69-.31,0-.55-.07-.63.01-1.33,1.42-2.79,2.75-3.91,4.33-1.63,2.31-3.12,4.74-4.47,7.23-1.4,2.58-2.68,5.23-3.79,7.95-1.21,2.96-2.19,6.01-3.24,9.04-.31.9-.52,1.83-.78,2.74Z"/>
  <path d="M681.49,129.18c1.2.49,2.09.84,2.96,1.21.87.37,1.24,2.11.58,2.73-.13.12-.41.2-.57.14-1.63-.6-3.26-1.22-4.88-1.84.02-.11.05-.21.07-.32-.25.18-.5.37-.76.55.06,1.13,1.01,1.13,1.76,1.42,1.01.39,2,.83,2.99,1.25-.06.16-.11.32-.17.47-.37-.08-.74-.15-1.11-.23-.37-.08-.73-.16-1.1-.25-.04.1-.09.19-.13.29.3.19.6.38,1.04.66-.93.13-1.79.4-2.63.34-3.08-.22-5.91-1.18-8.48-2.96-1.12-.78-2.34-1.56-3.84-1.31-.48.08-.95.23-1.41.41-2.15.87-4.31,1.74-6.44,2.66-1.26.54-1.37.99-1.19,2.35.4,3.04.37,6.1-.03,9.14-.04.29-.44.54-.65.79.05,1.02.31,2.13.08,3.13-.16.7-.99,1.25-1.55,1.83-.08.09-.44.07-.51-.02-.82-1.14-2.52-1.7-2.33-3.52.08-.72.13-1.44.2-2.19-.32.16-.79.36-1.22.6-1.38.76-2.69.18-3.12-1.33-.35-1.25-.2-2.31.46-3.46.42-.72.48-1.67.58-2.53.15-1.3.25-2.61.25-3.92,0-.76-.24-1.52-.41-2.28-.24-1.06-.48-2.11.56-2.99-.66-.32-1.22-.54-.33-1.14.45-.3.63-.79.49-1.55-.28-1.47-.27-3-.27-4.51,0-1.67.15-3.35.19-5.02.09-3.75.02-7.51.27-11.25.23-3.4.79-6.78,1.24-10.16.25-1.89.67-3.76.83-5.66.11-1.28-.12-2.59-.14-3.89-.04-1.96,0-3.91-.04-5.87-.03-1.6-.14-3.19-.14-4.78,0-1.92-.02-3.86.18-5.77.21-2.03.82-4.02.98-6.05.16-2.09.05-4.21-.06-6.31-.09-1.81-.35-3.6-.53-5.41-.15-1.49-.36-2.97-.41-4.46-.04-1.32.09-2.65.2-3.97.2-2.33.45-4.66.65-7,.09-1.05.19-2.11.15-3.17-.03-.91-.28-1.81-.37-2.72-.02-.24.16-.7.29-.72.92-.12.75-.78.78-1.38.04-.63.02-1.3.21-1.89.24-.74.5-1.68,1.07-2.05,1.43-.92,2.9-1.99,4.78-1.7.49.08,1,.24,1.43.48,1,.56,1.11,1.25.46,2.28-.64,1.01-1.44,1.96-1.85,3.06-.48,1.27-.64,2.66-.89,4.01-.26,1.39-.56,2.78-.65,4.19-.1,1.69-.01,3.4.03,5.1.02.79.16,1.57.17,2.35.02,5.31.09,10.62-.03,15.93-.06,2.47-.53,4.94-.81,7.41-.08.74-.19,1.48-.23,2.23-.09,1.54-.24,3.08-.21,4.62.1,4.39.31,8.77.39,13.16.03,1.42-.23,2.84-.39,4.62,1.31-1.31,2.4-2.41,3.49-3.5,1.03-1.03,2.08-2.04,3.11-3.07.66-.66,1.23-1.42,1.95-1.99,1.07-.85,2.21-1.63,3.38-2.34.93-.57,1.94-1.01,2.92-1.49.65-.32,2.78.51,3.34,1.2.24.3.6.55.96.68.51.18,1.35.04,1.57.36.53.79.94,1.74,1.1,2.67.1.62-.16,1.43-.53,1.97-1.05,1.54-1.51,3.31-2.17,5.01-.8,2.05-1.83,4.01-2.75,6.02-1.56,3.4-3.16,6.79-4.65,10.22-.92,2.12-1.74,4.28-2.48,6.47-.65,1.96-1.11,3.98-1.68,5.96-.23.79-.5,1.57-.76,2.35l.26.26c.97-.25,1.94-.52,2.92-.75,2.97-.73,5.93-1.52,8.93-2.13,1.37-.28,2.81-.16,4.21-.26,1.08-.07,1.43.68,2.1,1.34,1.09,1.07.89,2.22.75,3.29-.12.95-.78,1.85-1.29,2.72-.22.37-.64.63-1.17,1.11ZM658,105.02v1.15c.43.07.82.14,1.17.2-.83,1.18-.8,2.31-.57,3.51.84-1.09,1.5-2.28,2.27-3.39,1.64-2.35,3.35-4.64,4.99-6.99,1.36-1.95,2.74-3.9,3.95-5.93.56-.93.74-2.08,1.12-3.2-.37-.24-.72-.46-1.13-.71-.53.71-.97,1.38-1.49,1.99-1.11,1.29-2.25,2.55-3.38,3.82-.24.27-.54.72-.78.71-.68-.05-.71.32-.75.78-.01.14-.96,1.1-1.11,1.18-.84.49-1.61,1.22-1.54,2.15.07.94-.19,1.39-.98,1.72-.17.07-.34.27-.39.44-.25.76-.48,1.54-.68,2.32-.04.14.08.31.2.77.18-.43.28-.67.38-.9.09.07.18.14.27.21-.1.28-.21.56-.35.97-.44-.29-.81-.53-1.18-.77ZM671.92,125.14c0,.76.62,1.1,1.58.82,1.2-.35,2.43-.57,3.7-.86.01-.06.07-.37.19-.95-.87.1-1.65.16-2.42.3-1.01.19-2,.44-3.05.68ZM657.8,107.84c-1.38.7-1.8,2.86-.97,5.27.31-1.7.62-3.39.97-5.27ZM676.35,127.62q2.18,1.24,2.75.74c-.52-.27-1.05-.55-1.57-.83l.11-.23c-.39.1-.78.19-1.28.31ZM654.26,146.18c.19-.84.35-1.51.54-2.31-1.4.54-1.48.88-.54,2.31ZM655.49,123.34c.7,1.17,1.01,1.16,2.03-.15-.79.06-1.34.1-2.03.15Z"/>
  <path d="M224.04,111.46c-.1.48-.19.95-.29,1.43-.07,0-.13,0-.2,0-.11-.7-.29-1.4-.32-2.11-.16-3.44.31-6.79,1.2-10.13.98-3.68,2.45-7.13,4.29-10.42,1.21-2.17,2.83-4.03,4.82-5.59,2.17-1.71,4.21-3.59,6.31-5.38,3.3-2.8,6.63-5.58,10.48-7.59,1.05-.55,2.46-.38,3.58-.84,2.39-.97,4.59-.51,6.8.48,1.71.77,2.75,2.17,3.3,3.89.18.57,0,1.33-.19,1.94-.19.63-.74.79-1.39.56-.92-.34-1.83-.82-2.78-.94-1.94-.25-3.52.88-5.14,1.72-.28.14-.5.43-.79.53-.82.29-1,.72-.58,1.51.48.91-.26,1.24-.91,1.39-1.27.29-2.57.43-3.46,1.56-.97,1.23-2.02,2.41-2.92,3.68-1.14,1.61-2.27,3.23-3.21,4.96-.97,1.79-1.78,3.68-2.51,5.58-.75,1.93-1.46,3.9-1.93,5.92-.84,3.57-1.63,7.16-2.17,10.79-.54,3.62-.83,7.28-1.07,10.94-.07,1.12.24,2.34.67,3.39.27.65,1.04,1.16,1.67,1.6.98.68,1.97,1.39,3.06,1.84,1.12.46,2.35.67,3.56.88.91.16,1.85.19,2.77.23,3.42.16,6.56-.77,9.63-2.21,2.92-1.37,5.93-2.56,8.95-3.72.78-.3,1.74-.26,2.6-.21,1.68.1,2.15,1.52,2.74,2.76.27.56.45,1.1,1.28,1.05.23-.01.57.48.72.8.28.62.4,1.31.68,1.93.45,1.01.05,1.92-.51,2.61-.88,1.08-2.2,1.3-3.57,1.39-.66.04-1.4.43-1.93.88-2.4,2.01-5.08,3.41-8.09,4.26-3.4.96-6.71.76-9.98-.53-1.34-.53-2.71-.99-4.08-1.4-.39-.12-.88-.05-1.28.07-3.89,1.15-7.47.5-10.53-2.1-2.38-2.02-4.08-4.59-5.12-7.61-.46-1.34-1.25-2.59-1.97-3.83-1.28-2.2-2-4.58-2.35-7.07-.39-2.73-.5-5.47.36-8.16.07-.21,0-.46,0-.7-.07,0-.14-.02-.21-.03ZM245.44,84.22c-.06-.11-.13-.23-.19-.34-.23.07-.52.06-.69.21-1.42,1.23-2.91,2.41-4.21,3.76-1.3,1.35-2.46,2.86-3.6,4.35-.75.98-1.46,2.02-2.03,3.12-.92,1.73-1.69,3.54-2.57,5.3-.84,1.68-1.86,3.28-2.55,5.01-.75,1.89-1.31,3.88-1.74,5.87-.51,2.39-.98,4.82-1.14,7.25-.23,3.42.59,6.7,2.23,9.72.58,1.07,1.46,1.98,2.21,2.96.1-.08.2-.15.29-.23-.12-.19-.22-.4-.38-.56-1.76-1.84-2.43-4.2-2.82-6.56-.49-2.99-.52-6.03.35-9.02.67-2.3.98-4.71,1.83-6.93.85-2.21,1.6-4.49,2.91-6.55,1.37-2.14,2.28-4.57,3.58-6.76,1.13-1.89,2.59-3.57,3.81-5.41.74-1.11,2.04-1.69,2.38-3.25.17-.78,1.51-1.3,2.31-1.94ZM231.83,108.43c-.11-.02-.21-.04-.32-.05-1.09,3.11-1.03,6.39-1.38,9.6.13.02.26.04.38.06.44-3.2.88-6.41,1.31-9.61ZM239,137.3l-.21.47,3.14,1.63c.05-.09.09-.17.14-.26-1.02-.62-2.05-1.23-3.07-1.85Z"/>
  <path d="M374.94,97.22c-.26.95-.4,2.03-.85,2.98-1.06,2.26-2.27,4.46-3.4,6.69-.12.24-.15.54-.19.82-.24,1.54-1.19,2.69-2.08,3.87-.11.14-.48.05-.71.12-.27.09-.65.17-.76.37-1.33,2.34-2.73,4.66-4.74,6.48-.71.64-1.68,1-2.54,1.48-1.39.77-2.74,1.67-4.2,2.26-1.88.76-3.86,1.28-5.81,1.87-.18.05-.45-.13-.64-.25-.37-.24-.72-.52-1.17-.7-.99-1.85-.72-3.63.57-5.33.66-.86,1.45-.77,2.37-.6.58.11,1.28.09,1.81-.14,3.42-1.5,6.34-3.77,8.85-6.49,2.31-2.5,3.86-5.5,5.08-8.7,1.05-2.73,1.43-5.52,1.2-8.37-.12-1.45-.71-2.89-1.28-4.26-.4-.95-1.47-.54-2.12-.41-2.23.45-4.41,1.13-6.33,2.45-2.41,1.67-4.01,4.03-5.61,6.4-2.2,3.27-3.72,6.87-5.02,10.56-.66,1.88-.99,3.88-1.48,5.83-.08.34-.1.72-.27,1.02-1.51,2.66-1.02,5.37.15,7.88.55,1.17,1.93,1.99,3.01,2.87,2.36,1.93,5.32,2.23,8.15,2.8,1.83.37,3.7.59,5.55.89.47.08,1.14-.02,1.02.55,1.54.18,3.12.25,4.66.56,1.44.29,2.84.81,4.24,1.26,1.76.57,2.82,2.19,2.23,3.85-.25.7-1.19,1.34-1.96,1.6-.78.26-1.73,0-2.61.02-.28,0-.67.14-.81.35-.69,1.02-1.69.73-2.34.29-2.31-1.58-4.93-1.74-7.54-1.74-4.09,0-8.16-.16-12.05-1.57-1.78-.64-3.37-1.53-4.84-2.95-1.26-1.22-2.33-2.59-3.45-3.89-.88-1.02-1.51-2.44-1.75-3.77-.49-2.72-.87-5.5-.89-8.26-.05-5.1.74-10.14,2.21-15.03.73-2.41,1.9-4.69,2.83-7.04,1.2-3.05,3.2-5.53,5.57-7.72,1.91-1.76,4.04-3.21,6.42-4.28,1.25-.56,2.45-1.27,3.73-1.73,3.39-1.22,6.64-.74,9.63,1.2,1.05.68,1.8,1.84,2.86,2.5,2.65,1.67,4.37,3.89,5.44,6.89.63,1.77.8,3.45.68,5.22-.03.42-.5.81-.83,1.3ZM362.11,133.84c.03.1.06.2.09.29.6-.39,1.3-.7.19-1.42-.29-.19-.26-.85-.31-1.03-1.44.17-2.98.41-4.52.5-1.55.09-3.1.02-4.66.02-.04.97.42,1.17,1.59.57.14.72.22,1.2,1.24.66.61-.33,1.58,0,2.39.04.47.02.94.01,1.41.06.87.09,1.73.21,2.59.31ZM369.29,90.89c2.07,5.88,1.61,11.49-.15,17.08,3.37-5.57,3.26-13.51.15-17.08ZM344.46,130.31c-.06.12-.11.23-.17.35.8.37,1.58.81,2.41,1.08.66.21,1.44.07,2.08.32.75.29.86-.06.98-.58-1.79-.39-3.55-.78-5.31-1.17ZM366.68,84.75c0-.14-.01-.29-.02-.43-.97-.08-1.95-.21-2.92-.19-.31,0-.61.44-.91.68.29.05.58.14.87.16.39.03.79.02,1.18,0,.6-.05,1.2-.13,1.8-.2ZM342.17,128.9c-.07.09-.14.18-.21.28.43.41.44,1.35,1.67.7-.49-.33-.97-.65-1.46-.98Z"/>
  <path d="M719.05,131.58c.28.62.32.93-.59,1.09-2.38.41-4.77.29-7.14.14-1.75-.11-3.49-.48-5.21-.86-1.96-.43-3.88-.98-5.82-1.49-2.3-.6-4.11-1.74-4.84-4.18-.52-1.76-2-2.67-3.41-3.61-.5-.33-1.11-.56-1.49-1-.3-.34-.57-1.04-.42-1.38.27-.58-.12-.79-.36-1.01-.72-.68-1.58-1.22-2.21-1.97-.29-.34-.18-1.03-.22-1.31-.55-1.31-1.01-2.43-1.48-3.54.85.45,1.6.94,1.44,1.88.33.27.69.45.89.73.54.75.92,1.62,1.53,2.29.58.64,1.37,1.09,2.04,1.65.1.08.02.36.11.46.13.14.35.19.53.28.04-.17.18-.42.11-.51-.72-.86-1.5-1.66-2.2-2.53-.9-1.13-1.72-2.32-2.59-3.47-.57-.75-1.17-1.49-1.71-2.18,0,0,.26,0,.51,0,.02-.07.03-.1.04-.14-1.02-.28-.66-1.25-.74-1.83-.25-1.85-.63-3.65-.58-5.6.06-2.59,1.1-4.43,2.58-6.3,2.81-3.57,5.97-6.79,9.41-9.73,3.15-2.69,6.71-4.72,10.76-5.71,2.21-.54,4.48-.68,6.57.59.32.19.63.41.91.66,1.47,1.28,3.11,2.43,4.33,3.92,1.08,1.32,1.87,2.97,2.45,4.59.62,1.75.92,3.62,1.22,5.46.44,2.73-.09,5.39-1.02,7.96-1.36,3.73-3.73,6.74-6.71,9.35-1.05.92-1.91,2.12-2.67,3.31-1.16,1.8-2.76,3.1-4.4,4.39-.25.2-.34.6-.59,1.07,2.56.25,4.84.46,7.13.68.98.09,1.3-.35,1.36-1.32.06-1.03.4-2.05.61-3.07.09-.45.08-.94.25-1.35.18-.43.46-.92.84-1.14.21-.12.76.23,1.06.48.9.74,1.32,1.66,1.36,2.88.05,1.4.46,2.79.61,4.2.1.9.06,1.82-.03,2.72-.13,1.27-.36,2.53-.57,3.92-.45.15-1.05.34-1.64.53.01-.21.08-.59.02-.61-.66-.23-1.34-.41-2.02-.6.4,1.05,1.21,1.12,2.03,1.18ZM713.74,94.14c-.07-.02-.13-.04-.2-.07-.18-1.15-.29-2.32-.57-3.45-.07-.29-.7-.67-1.05-.64-1.19.1-2.4.25-3.54.6-2.53.77-4.82,2.04-6.83,3.78-.94.81-2.15,1.37-2.89,2.32-2.07,2.67-3.98,5.48-5.91,8.25-.68.98-1.11,2.05-.31,3.21.9,1.31,1.77,2.64,2.73,3.91.94,1.24,2.07,2.34,2.93,3.62,1,1.49,1.97,1.7,3.54.76,1.11-.66,2.36-1.16,3.61-1.54,1.3-.4,2.59-.77,3.32-2,.43-.71.73-1.52.98-2.31.9-2.85,1.86-5.68,2.61-8.57.66-2.59,1.07-5.25,1.58-7.87ZM717.28,89.33c.1-.04.19-.08.29-.12-.05-.42.04-1.12-.16-1.21-1.05-.49-2.17-1.14-3.27-1.15-1.63-.01-3.27.42-4.89.76-.83.17-1.62.56-2.51.88,1.49.53,2.73-.4,4.07-.29.39.03.8-.14,1.37-.24-.34.26-.54.42-.76.59.62.09,1.2.18,1.77.27.02-.08.03-.16.05-.24-.22-.11-.44-.21-.66-.32.38-.08.5-.53.92-.42,1.08.29,2.17.52,3.34.79.09.15.26.42.43.7ZM695.85,93.31c.08.15.17.29.25.44,3.31-1.47,6.61-2.93,9.92-4.4-.93-.31-1.64-.28-2.42.32-.91.7-2.12,1.03-3.21,1.49-1.22.52-2.46,1-3.67,1.54-.32.14-.58.4-.87.61ZM718.23,106.41c0-.86-.07-1.48.02-2.07.12-.89.17-1.86.57-2.62.57-1.09.97-2.05.11-3.23-.18.98-.32,1.88-.5,2.77-.15.71-.37,1.41-.51,2.13-.11.56-.15,1.14-.21,1.72.02.17-.32.43-.27.6.05.22.41.38.81.71ZM693.19,121.45c-.53.03-.92.05-1.24.07.45.48.79.87,1.18,1.22.1.1.34.13.48.08.14-.05.34-.3.31-.37-.29-.67-.59-1.33-.96-1.95-.07-.12-.41-.08-.63-.12-.03.08-.05.16-.08.24.27.24.55.48.95.83ZM716.47,126.34c-.81-.16-1.45-.29-2.14-.43.12,1.09.76,1.33,1.55,1.28.32-.02.63-.18.96-.28-.18-.29-.33-.52-.37-.58ZM718.14,107.07c-.42-.35-.74-.62-1.25-1.04v1.87c.39-.26.77-.51,1.25-.83Z"/>
  <path d="M602.69,121.38c-.28-.5-.65-.98-.82-1.51-.3-.94-.77-1.71-1.41-2.47-.71-.83-1.34-1.8-1.75-2.81-.61-1.51-1.13-3.08-.98-4.77.21-2.4.44-4.8,1.51-7.01,1.67-3.45,3.35-6.9,5.02-10.36.42-.86.78-1.75,1.24-2.58.58-1.05,1.25-2.06,1.92-3.16-.26.11-.49.21-.85.36.1-.4.13-.75.28-1.03,1.06-1.91,2.04-3.88,3.25-5.69.78-1.16,1.76-2.32,2.92-3.04.87-.54,2.26-.69,3.28-.44,1.78.45,3.44,1.35,5.16,2.04.44.18.91.37,1.37.39,1.15.06,2.31.06,3.47.01,2.71-.11,4.25,1.63,5.58,3.58.29.42,0,1.21.12,1.8.06.33.4.61.6.92.23.36.65.73.64,1.08-.06,1.42-.3,2.83-.39,4.25-.12,1.82-.1,3.66-.24,5.48-.24,2.98-.66,5.95-.81,8.93-.11,2.34-.04,4.7.17,7.03.21,2.3.8,4.56,1.04,6.86.13,1.23-.26,2.51-.15,3.75.26,3.05-.49,5.95-1.03,8.9-.21,1.11-.04,2.3-.02,3.45,0,.42.15.84.14,1.27-.01.67.05,1.53-1.08.82-.18-.11-.49-.02-1.02-.02.28.55.48.96.72,1.44-.86.24-1.11,1.77-2.47,1.31.26-.18.74-.37.76-.58.02-.31-.26-.67-.49-.94-.84-.99-.76-1.48-.15-2.66.45-.87.58-1.91.8-2.89.08-.39.01-.81.01-1.25-1.12.24-1.48,1.15-1.59,2.11-.08.75-.16,1.26-1.18.95,1.11.99.26,1.88.03,2.86h1l.18.34c-.33.2-.7.61-.97.55-.39-.09-1-.5-1-.79-.02-1.96.09-3.92.15-5.88.07-2.5-.15-4.94-.9-7.37-.81-2.62-1.39-5.32-1.82-8.02-.13-.81.45-1.84.94-2.62.51-.82,1.33-1.44,1.94-2.21.21-.26.21-.7.12-1.06-1.33,1.58-2.57,3.25-4.04,4.7-1.01,1.01-2.33,1.71-3.51,2.54-.49.35-.96.78-1.51.98-1.42.51-2.87.93-4.32,1.34-1.13.32-2.27.64-3.43.8-.75.11-1.55-.08-2.33-.12-.29-.02-.58-.04-.86,0-.79.13-1.57.29-2.36.43-.3,0-.6,0-.9-.01ZM624.59,92c0-.99.11-2.14-.03-3.26-.22-1.78-1.02-2.12-2.51-1.19-1.02.63-2,.56-3.01-.04-2.16-1.3-4.3-1.02-5.78.9-1.77,2.3-3.25,4.78-4.29,7.51-.63,1.67-1.42,3.3-1.94,5-.34,1.1-.42,2.31-.43,3.48,0,1.41.25,2.83.28,4.25.04,1.55-.06,3.11-.06,4.67,0,1.12,1.25,2.9,2.09,2.83,1.32-.12,2.71-.25,3.91-.75,1.17-.5,2.24-1.37,3.18-2.27,1.74-1.66,3.3-3.52,5.05-5.18,1.09-1.04,1.34-2.22,1.4-3.65.11-2.74.41-5.48.63-8.21.04-.52.21-1.07.1-1.55-.21-1,.34-1.68.78-2.42.06-.1.34-.06.62-.09ZM620.63,115.5s.06.05.09.07c.79-.81,1.58-1.63,2.36-2.44.04.05.09.09.13.14-.86.74-1.72,1.48-2.58,2.22Z"/>
  <path d="M490.4,136.64c.74.19,1.27.32,1.84.47.72-.77,1.45-1.08,2.69-.66,2.66.9,5.44,1.44,8.12,2.28,1.43.45,2.82,1.15,4.12,1.92.73.43,1.28.43,1.95.08,1.15-.61,2.15-.13,2.35,1.13.06.35.17.69.21,1.03.15,1.57-1.31,3.91-2.86,4.22-.69.14-1.19.52-1.8.69-.43.12-1.08.09-1.41-.16-.98-.75-1.99-1.06-3.24-.95-1.03.09-2.1-.13-3.14-.23-2.61-.26-5.23-.44-7.82-.86-1.17-.19-2.26-.91-3.38-1.38-2.3-.97-4.64-1.86-6.89-2.94-1.85-.89-2.81-2.64-3.66-4.43-.6-1.27-1.09-2.63-1.91-3.74-1.22-1.65-1.7-3.45-1.82-5.44-.06-.97-.31-1.93-.44-2.9-.05-.4,0-.81.14-1.18-.11-.23-.34-.48-.31-.7.18-1.36.38-2.72.63-4.07.26-1.42.53-2.84.9-4.23.81-3.03,1.69-6.03,2.56-9.04.15-.53.41-1.04.54-1.59-2.05,1.9-1.65,4.97-3.41,7.19,1.02-3.95,2.48-7.49,4.95-10.64,2.35-3,5.39-4.7,8.94-5.83,4.15-1.32,8.06-.72,12,.79,2.22.85,4.33,1.74,5.93,3.58,1.5,1.73,2.98,3.46,3.42,5.81.06.31.14.63.14.94-.06,2.62.03,5.26-.26,7.86-.29,2.6-1.77,4.8-2.97,7.08-.8,1.52-1.4,3.14-2.2,4.66-1.25,2.4-2.38,4.86-4.25,6.94-1.55,1.73-3.44,2.41-5.55,2.94-1.32.33-2.59.86-4.11,1.38ZM504.37,108.78c.09-.04.19-.08.28-.12-.47-.83-.94-1.66-1.42-2.48-2.35-4.08-6.27-5.06-10.52-5.14-1.88-.03-3.67.83-5.25,1.81-2.47,1.51-4.49,3.54-6.13,5.95-.98,1.43-1.04,3.13-1.61,4.65-1.32,3.51-.84,6.97-.22,10.46.19,1.06.46,2.16.96,3.1.5.94,1.35,1.69,2.04,2.54.68.84,1.49,1.32,2.61,1.14.95-.16,1.61.18,2.13,1.03.17.28.83.52,1.12.4.78-.3,1.58-.7,2.2-1.25,1.4-1.27,2.77-2.6,4.02-4.02,1.74-1.97,3.46-3.97,5.01-6.1,2.6-3.56,4.9-7.29,4.79-11.98Z"/>
  <path d="M379.84,93.32c-.11.16-.19.26-.31.44-.17-.69-.33-1.32-.51-2.02-.07.02-.29.07-.67.15.07-1.34.14-2.6.19-3.68,1.35,0,2.5-.12,3.61.05.52.08,1.06.67,1.39,1.16.85,1.25,1,2.72,1.15,4.19.09.86.26,1.71.44,2.56.04.2.28.53.36.51.25-.07.57-.21.68-.41,1.44-2.66,3.52-4.82,5.58-6.96,2.6-2.7,5.57-4.99,8.73-6.99,2.68-1.7,5.63-2.83,8.62-3.87,3.78-1.31,7.7-1.34,11.62-1.29,1.08.01,2.19.01,3.24.25.74.17,1.39.74,2.09,1.11.56.29,1.13.74,1.71.76,3.09.12,5.97.96,8.73,2.29.74.36.83.84.68,1.61-.24,1.21-.53,2.48-.37,3.67.13,1-.43,1.2-.96,1.29-.92.15-1.88.06-2.82.06-.87,0-1.74.01-2.62-.02-2.25-.07-4.44-.35-6.41-1.57-1.23-.76-2.56-.75-3.91-.38-2.79.75-5.68,1.23-8.34,2.27-3.71,1.45-7.21,3.36-10.38,5.86-3.24,2.56-5.98,5.57-7.84,9.24-1.77,3.5-3.18,7.19-3.55,11.13-.24,2.58-.05,5.21-.05,7.82,0,2.28.12,4.54.8,6.76.27.9.29,1.91.26,2.87-.03,1.16.41,2.12.84,3.14.82,1.94,1.26,3.99,1.1,6.11-.09,1.17-1.41,1.61-2.35.84-1-.82-1.93-1.66-2.25-3.03-.18-.78-.66-1.51-1.08-2.22-1.97-3.24-2.66-6.86-3.41-10.5-.82-3.95-.84-8.01-2.07-11.91-.77-2.44-.23-5.03.24-7.52.3-1.58.13-3.11-.31-4.64-.4-1.38-.75-2.79-1.03-4.2-.31-1.6-.51-3.22-.78-4.94ZM390.99,100.15c-.35.38-.77.71-1.05,1.14-.61.92-1.16,1.89-1.73,2.84.11.07.22.13.33.2.53-.85,1.07-1.68,1.58-2.54.31-.53.56-1.1.84-1.66.74-.8,1.47-1.6,2.21-2.39l-.31-.25c-.94.65-1.51,1.59-1.87,2.68ZM402.51,83.48c.03.07.05.14.08.21,1.07-.3,2.16-.57,3.22-.91,1-.32,1.94-.89,2.95-1.04,2.59-.39,5.2-.68,7.81-.82.53-.03,1.08-.69,1.65-.11,0,0,.23-.15.25-.24.02-.11-.06-.31-.14-.35-.26-.1-.55-.2-.82-.18-1.82.11-3.67.09-5.45.41-2.31.42-4.58,1.08-6.84,1.74-.95.28-1.81.85-2.71,1.28ZM387.58,134.81c.17-.05.34-.1.52-.14-.27-1.03-.54-2.05-.8-3.09-.17-.68-.27-1.37-.45-2.04-.15-.55-.36-1.07-.55-1.61l-.33.11,1.6,6.77ZM385.88,127.23c.49-.57.32-1.17.17-1.92-.33-1.64-.41-3.33-.59-5-.11,0-.21,0-.32,0-.38,1.12.2,2.27.23,3.39.03,1.19.33,2.38.51,3.53ZM408.13,86.95c.09-1.03,1.15-.75,2.02-.81-.07-.25-.15-.5-.23-.78-.96.34-1.84.65-2.53.89.33.32.61.59.73.7ZM388.64,113.84c-.08,0-.16,0-.24-.01-.05,1.15-.1,2.3-.16,3.45.13,0,.27,0,.4.01v-3.44ZM420.63,84.86c.04-.09.09-.19.13-.28-.82-.12-1.63-.24-2.45-.37-.02.07-.03.15-.05.22.17.06.33.12.43.15-.24.19-.5.4-.68.55.9-.1,1.76-.19,2.62-.28Z"/>
  <path d="M527.73,64.73c.36-1.14.7-2.27,1.09-3.39.32-.92.91-1.04,1.74-.55,1.07.63,1.76,1.55,1.69,2.75-.12,1.94-.47,3.87-.71,5.81-.07.53-.05,1.07-.13,1.59-.11.77-.34,1.52-.41,2.28-.18,1.87-.41,3.75-.42,5.63-.01,3.45-.06,6.92.24,10.35.33,3.71-.15,7.3-.55,10.96-.35,3.26-.11,6.58-.17,9.87-.04,2.51-.12,5.03-.2,7.54-.05,1.35-.17,2.7-.21,4.05-.09,2.95-.28,5.9-.18,8.84.07,2.3.65,4.58.75,6.87.08,1.77-.18,3.56-.42,5.32-.09.71-1.61,1.38-2.26,1.17-1.17-.38-2.23-1.62-1.98-2.42.1-.31.55-.48.79-.76.2-.24.32-.54.48-.82-.09-.05-.18-.1-.27-.16-.43.36-.86.72-1.23,1.04-.32-.26-.62-.46-.87-.72-.25-.27-.64-.6-.63-.9.08-2.54.25-5.07.38-7.6.09-1.7.23-3.41.19-5.11-.04-1.67-.29-3.34-.4-5.01-.1-1.54-.17-3.09-.22-4.64-.03-.98.03-1.96-.02-2.94-.02-.4-.47-1.03-.35-1.13.74-.63.12-1.13,0-1.68.21-.3.43-.63.65-.95-.08-.06-.17-.12-.25-.18-.14.19-.27.37-.41.56-.08,0-.15,0-.23-.01.06-.77.11-1.54.17-2.32-.1-.03-.2-.06-.29-.09-.12.46-.34.91-.34,1.37,0,2.07-.09,4.16.1,6.22.31,3.44-.08,6.94.94,10.31.01.04-.06.12-.2.35-.39-.76-.92-1.39-1.03-2.1-.38-2.49-.73-4.99-.89-7.49-.19-2.98-.14-5.98-.26-8.97-.09-2.15-.29-4.3-.43-6.45-.09-1.46-.15-2.91-.21-4.37-.07-1.59-.22-3.18-.18-4.76.05-2.1.32-4.19.36-6.29.03-1.87-.03-3.76-.22-5.62-.16-1.57-.44-3.15-.86-4.67-.34-1.21-.9-2.38-1.5-3.49-.6-1.11-.59-1.82.3-2.67,1.01-.96,1.8-2.2,3.36-2.43.21-.03.5-.25.57-.45.7-1.97,2.5-2,4.1-2.33.28-.06.64.33,1.02.54ZM528.09,136.34c.94-.98.84-4.26-.36-5.03.13,1.76.24,3.43.36,5.03Z"/>
  <path d="M185.28,122.35c-.32-.67-.73-1.19-.81-1.76-.08-.6.16-1.24.05-1.9-.06.17-.11.35-.17.52-.07,0-.14-.02-.21-.03.1-1.74.16-3.47.32-5.2.15-1.55.44-3.09.61-4.64.31-2.88.64-5.77.82-8.66.14-2.25-.02-4.52.11-6.77.16-2.59.46-5.16.76-7.74.17-1.44.33-2.9.74-4.28.4-1.37.96-2.74,1.72-3.93.93-1.46,3.16-1.06,3.93.54.14.29.5.46.77.7-1.94,1.88-1.92,4.38-2.22,6.78,1.1-1.9.75-4.46,2.87-6.04.14.9-.41,1.79.43,2.45.1.08-.28.79-.46,1.21-.19.46-.5.89-.56,1.36-.06.51-.08,1.24.21,1.52.34.33,1.04.32,1.6.35.1,0,.32-.52.32-.8.04-1.3-.01-2.6.02-3.9.03-1.11.06-2.22.25-3.31.09-.49.49-1.21.87-1.3.57-.13,1.46,0,1.84.39.98,1.02,1.95,1.97,2.63,3.38,1.13,2.36.58,4.57.49,6.86-.06,1.63-.23,3.27-.45,4.89-.32,2.31-.75,4.61-1.09,6.92-.35,2.44-.65,4.89-.96,7.34-.33,2.67-.66,5.34-.95,8.01-.07.6-.16,1.3.07,1.82.61,1.4-.1,2.55-.38,3.84-.39,1.79-.43,3.66-.53,5.51-.02.32.51.64.58,1,.18.95-.96,2.22-1.84,2.57-1.34.52-2.01-.4-2.86-1.02-.93-.67-1.08-1.52-.95-2.64.1-.94-.37-1.93-.35-2.9.02-1.45.27-2.9.38-4.35.04-.55-.04-1.1-.07-1.65-.12-.04-.24-.07-.36-.11-.14.45-.36.9-.4,1.36-.21,2.15-1.15,3.78-3.2,4.6-.94.37-1.95.75-2.65-.53-.15-.27-.65-.35-.89-.48ZM192.26,105.72c.15,0,.3,0,.45,0v-5.28c-.76,1.74-.87,3.5-.45,5.28ZM193.13,91.08c-.11,0-.21,0-.32-.01-.67,2.85-.66,4.35.05,5.1.09-1.73.18-3.41.26-5.09Z"/>
  <path d="M543.88,60.34c.09-.27.21-.53.28-.81.1-.42.17-.85.25-1.28-.12-.02-.23-.04-.35-.06l-.18,1.17-.38-.02c0-.98.02-1.95,0-2.93-.03-1.24-.21-2.5-.14-3.73.14-2.23.28-4.49.7-6.68.17-.88,1.06-1.63,1.65-2.43,1.12-1.51,3.07-2.25,3.82-4.13.33-.84,1.16-.86,1.8-.51,1.1.59,2.12,1.34,3.16,2.04.46.31.88.67,1.43,1.08-1.11.62-1.42,1.17-1.17,2.24.23.97-.07,2.05-.1,3.09-.03,1.08,0,2.17-.04,3.26-.07,1.47-.14,2.94-.33,4.39-.35,2.7-.85,5.39-1.17,8.09-.3,2.58-.48,5.18-.65,7.78-.05.81.17,1.63.19,2.45.03,2.1.12,4.21-.03,6.3-.08,1.12-.15,2.23-.18,3.45-.16-.17-.25-.27-.45-.49.08,1.07.23,2.02.2,2.96-.03.83-.29,1.64-.39,2.47-.23,2.07-.5,4.13-.61,6.21-.11,2.13-.03,4.27-.05,6.4-.01,1.55-.28,3.15-.02,4.65.42,2.36-.13,4.7.14,7.05.28,2.44.13,4.92.34,7.37.21,2.41,1.2,4.51,3.23,5.97.59.43.58.93.24,1.36-.47.6-1.01,1.24-1.66,1.59-.82.44-1.79.61-2.67.89.04.09.17.27.17.45.02,1.56.02,3.11.01,4.67,0,.93-.84,1.41-1.56.8-.67-.57-1.39-1.27-1.66-2.07-.53-1.55-.78-3.2-1.09-4.82-.05-.27.18-.78.39-.85.25-.09.66.12.92.31.64.46,1.23.99,1.84,1.49.11-.12.23-.23.34-.35-.99-1.17-2.01-2.3-2.94-3.51-.37-.48-.68-1.1-.76-1.7-.41-2.75-.78-5.5-1.09-8.26-.32-2.9-.49-5.82-.85-8.72-.68-5.4-1.12-10.81-.91-16.26.07-1.92-.26-3.9.07-5.76.77-4.38.2-8.75.35-13.13.11-3.33.03-6.66.02-10,0-.51-.05-1.01-.07-1.53.1.39.25.78.28,1.19.16,1.82.29,3.65.42,5.47.11,0,.23-.02.34-.03-.16-2.05-.32-4.1-.52-6.15-.02-.17-.36-.31-.55-.46ZM545.46,68.34c.11.32.25.54.25.76,0,1.39,0,2.78-.04,4.17-.05,2.48-.12,4.96-.19,7.44,0,.25-.05.5-.08.74-.19,1.95-.4,3.9-.56,5.86-.04.51.16,1.05.08,1.55-.23,1.55,0,3.12-.49,4.67-.22.7.32,1.63.51,2.47-.36.03-.57.21-.01.67.11.09.2.27.22.41,0,.07-.18.19-.3.22-.13.04-.29,0-.43,0,.07.14.11.31.21.43.23.28.49.53.89.95h-1.04c.19.97.47,1.89.53,2.83.06.86-.64,1.83.38,2.46-.14.46-.27.9-.4,1.33.05.02.11.03.16.05.09-.23.19-.46.33-.8.17.29.26.46.47.82.08-.58.18-.96.18-1.34,0-.64-.15-1.29-.12-1.92.09-1.86.24-3.71.38-5.57.04-.56.15-1.12.16-1.68.02-1.32-.1-2.65.01-3.96.1-1.15.55-2.28.64-3.43.16-2.08.23-4.17.23-6.25,0-2.84-.15-5.69-.19-8.53-.03-1.65-.02-3.31.06-4.96.08-1.86.06-3.75.43-5.56.59-2.9.15-5.77.14-8.65,0-1.92.02-3.84-.03-5.76-.01-.49-.26-.97-.4-1.45-.14.03-.28.07-.42.1-.19,1.57-.38,3.14-.56,4.71-.1,0-.2-.01-.31-.02v-1.64c-.8.1-1.15.46-.56,1.34-.2.37-.26.74-.24,1.11,0,.15.32.39.3.41-.78.83-.36,1.82-.35,2.73.01,1.79.04,3.57.16,5.36.06.9.07,1.77.02,2.67-.09,1.67.24,3.37.39,5.06-.18.08-.38.17-.4.18ZM545.73,108.16c-.13.02-.27.04-.4.06.1,1.48.2,2.96.29,4.44l.3-.02c-.08-1.49.23-3.01-.2-4.49ZM546.23,47.48c-.98-1.08.58-1.32.53-2.07-1.09-.02-1.55.8-1.42,2.51.26-.13.53-.26.89-.44Z"/>
  <path d="M201.53,48.76c1.87,1.04,1.95,2.92,2.35,4.59-.52.14-1.03.22-1.51.41-1.33.53-2.45.03-3.54-.67-.2-.13-.4-.36-.61-.37-1.67-.03-1.88-.17-2.41-1.79-2.04,0-4.11-.07-6.17.04-.64.03-1.25.58-1.89.85-1.19.52-2.37,1.11-3.61,1.47-.7.2-1.64.27-2.25-.04-1.59-.82-3.31-1.65-3.84-3.61-.39-1.45.33-2.7,1.03-3.85,1.62-2.65,3.58-5.06,5.87-7.18,1.77-1.63,3.49-3.38,5.74-4.33,1.56-.66,3.23-1.11,4.88-1.53,1.24-.32,2.52-.61,3.78-.61,1.14,0,2.46.12,3.37.71,1.46.95,3.05,1.71,4.18,3.25,1.73,2.36,1.25,5.31-1.36,6.67-.54.28-.93.87-1.4,1.3-.43.39-.86.8-1.33,1.14-.54.4-1.13.73-1.59,1.16-.26.88,1.58,1.27.32,2.39ZM184.7,46.43c-.68-.98-1.01-.31-1.45-.13-.48.2-1.02.23-1.5.33.18.24.36.5.51.7.78-.29,1.57-.58,2.45-.9ZM201.71,53.14c-.59-.51-1.15-1.03-1.75-1.48-.16-.12-.47-.03-.71-.04.13.21.23.44.4.61.41.44.84.86,1.28,1.28.11.1.3.23.41.19.12-.04.18-.25.38-.56ZM204.3,40.64c.13-.11.26-.22.4-.33-.3-.43-.56-.89-.93-1.24-.07-.07-.56.29-1,.53.59.4,1.06.72,1.54,1.04Z"/>
  <path d="M583.62,68.11c-.58-.45-1.15-.91-1.73-1.36-1.13-.86-2.22-1.77-3.39-2.58-3.32-2.3-4.04-6.03-2.59-9.56.72-1.77,1.84-3.25,2.93-4.76,1.13-1.56,2.81-2.3,4.5-3.01,4.56-1.9,8.51-.46,12.12,2.39,2.42,1.91,2.33,4.5,1.68,7.16-.35,1.43-.65,2.9-1.19,4.26-.9,2.28-2.05,4.46-3.87,6.15-.68.63-.72,1.06-.24,1.77.59.88,1.14,1.79,1.63,2.72.19.35.35.85.24,1.2-.09.29-.49.83-1.01.23-.51-.58-1.03-1.15-1.62-1.64-.55-.46-1.26-.73-1.79-1.2-.82-.73-1.31.09-1.89.32-1.04.41-2.02.29-2.99-.16-.15-.07-.3-.28-.34-.45-.13-.55-.21-1.11-.3-1.67-.05.06-.11.12-.16.18ZM583.83,63.49c.39.07.89.32,1.16.16,1.09-.64,1.87-.15,2.67.5.4.33.83.63,1.26.05.59-.8,1.34-1.55,1.71-2.44.68-1.65,1.35-3.36,1.62-5.1.38-2.38-1-3.98-3.02-5.08-1.71-.93-3.56-1.18-5.33-.51-2.2.84-3.49,4.01-2.97,6.41.31,1.43,1.19,2.38,2.28,3.21.73.56,1.46,1.13,2.31,1.78-.58.35-1.01.61-1.7,1.02ZM596.42,56.42c.06,0,.12,0,.18,0,.15-.61.5-1.24.43-1.81-.34-2.75-2.35-5.4-5.33-6.11-1.53-.37-3.01-.09-4.51-.12-.61-.01-1.22.38-1.83.58,2.95-.23,5.77-.1,8.22,1.66,1.6,1.15,2.99,2.53,2.65,4.82-.05.31.12.65.19.98Z"/>
  <path d="M579.42,122.27c-.11.42-.22.84-.36,1.35-1.09-.57-1.48-1.45-1.47-2.42.01-1.53.26-3.06.26-4.59,0-1.07-.12-2.18-.39-3.21-1.04-3.98-1.13-8.03-.94-12.09.07-1.58.32-3.19,1.66-4.39.86-.77,2.33-1.36,3.32-.84.5.26.84.85,1.33,1.37.26-.14.67-.51,1.11-.55.69-.07,1.47-.06,2.09.2.69.28.93.91.65,1.76-.33,1.03-.51,2.13-.65,3.21-.21,1.66-.34,3.33-.46,4.99-.23,3.29-.48,6.57-.62,9.86-.03.7.24,1.48.57,2.12.47.92.3,1.61-.29,2.38-.29.38-.49.93-.51,1.42-.08,1.66-.07,3.32-.06,4.99,0,.32.37.68.3.96-.22.91-.82,1.73-1.72,1.82-.66.07-1.71-.27-2.01-.77-.51-.87-1.02-1.91-.76-3.05.04-.19,0-.4,0-.6-.03-.74-.21-1.51-.06-2.21.24-1.06.12-1.4-1.02-1.68ZM582.44,101.29c-.2.02-.4.05-.59.07.25,3.11.49,6.23.74,9.34.17-.01.34-.02.51-.04-.22-3.13-.44-6.25-.66-9.38Z"/>
  <path d="M24.88,140.44c.31-.31.76-.56.87-.92.17-.53.13-1.13.12-1.7-.02-.95-.09-1.9-.15-3.04-.24.27-.5.57-.77.87-.11-2.16-.21-4.36-.32-6.57.11-.02.22-.03.33-.05.17.19.34.38.44.48.36-.38.68-.71,1.08-1.14-1.17.02-1-.6-.7-1.29.33-.79.3-1.58.03-2.41-.15-.46-.01-1.01-.07-1.51-.12-1.01-.32-2.01-.42-3.02-.04-.38.15-.78.13-1.17-.06-1.28-.68-2.55.19-3.86.12,1.15.23,2.29.36,3.44.36,3.24.76,6.48,1.07,9.73.27,2.8.47,5.62.65,8.43.18,2.68.29,5.36.44,8.04.13,2.32.31,4.64.41,6.96.03.63.04,1.38-.26,1.87-.29.46-.98.81-1.54.91-1.17.19-2.38.18-3.63.26-.11-.21-.27-.54-.55-1.1.37.18.52.26.97.48.24-1.9.62-3.69.66-5.49.06-2.87-.11-5.75-.18-8.63,0-.36,0-.71,0-1.19.31.61.56,1.1.83,1.63ZM26.11,150.29c.05,0,.1,0,.16,0v-3.19c-.05,0-.1,0-.16,0v3.2Z"/>
  <path d="M168.61,78.83c-.44-.39-.68-.61-.93-.83.22-.09.43-.19.65-.28.18-.39.36-.77.47-1-.52-.26-.81-.45-1.14-.54-.3-.09-.63-.08-.94-.09-1.32-.03-2.63.07-3.88-.63-1.42-.8-1.89-2.99-.69-3.97.32-.26.93-.47,1.26-.34,2.54,1.01,5.08,2.27,5.82,5.11.44,1.69.05,3.59,0,5.39,0,.09-.23.18-.35.27-.09-.12-.25-.25-.26-.37-.02-1.03-.01-2.07-.01-2.7Z"/>
  <path d="M602.69,121.38c.3,0,.6,0,.9.01,1.03,1.11,2.41,1.26,3.73,1.02,2.52-.46,5.01-1.11,7.51-1.72.28-.07.51-.36.92-.39-.31.25-.59.54-.93.76-2.41,1.57-4.94,2.76-7.92,2.47-.07,0-.15.02-.21,0-1.43-.54-2.97-.87-4-2.15Z"/>
  <path d="M35.27,77.92c.14-.49.5-1.04.39-1.46-.32-1.21,1.12-1.86.89-2.81-.16-.68-.3-1.2.11-1.74.22-.29.57-.47.95-.55-.29.58-.58,1.15-.87,1.73l.34.16c.79-1.15,1.87-2.16,1.85-3.85.21-.04.51-.1.95-.18-.76,1.33-.64,2.94-1.79,3.7-.85,1.78-1.66,3.46-2.46,5.14-.11-.05-.23-.09-.34-.14Z"/>
  <path d="M159.95,90.81c-.11-.14-.35-.3-.32-.41.23-1.1.47-2.2.75-3.29.29-1.14.61-2.29.97-3.41.05-.16.42-.21.66-.33-.09-.26-.24-.66-.43-1.16,1.55.45.83,1.41.51,1.99-.35.63-.35,1.23-.43,1.88-.03.3.4,1.17-.6.72-.08.26-.2.51-.22.77-.02.22.09.46-.11.77-.09-.14-.18-.29-.34-.55v1.88s.2.1.44.21c-.33.35-.62.65-.91.95,0,0,.03-.03.03-.03Z"/>
  <path d="M167.07,107.46c.28-1.17.55-2.33.83-3.5.16-.65.36-1.29.47-1.95.16-.96.26-1.93.39-2.96.49.33.38.93.29,1.48-.25,1.52-.37,3.06-1.06,4.51-.33.68-.31,1.52-.48,2.29-.02.07-.31.07-.47.1,0,0,.03.03.03.03Z"/>
  <path d="M56.55,41.19c.22-.06.47-.06.65-.18.18-.12.29-.35.43-.52.11.09.22.18.33.28-.78.86-1.56,1.71-2.35,2.57-.32.34-.6.74-.98.99-.31.2-.74.22-1.11.32,0,0,.03.03.03.03,0-.18-.09-.45,0-.54,1-1,2.02-1.98,3.04-2.96,0,0-.03.02-.03.02Z"/>
  <path d="M280.63,137.76h1.08c0,1.24.02,2.53-.03,3.83,0,.15-.37.29-.72.55.09-.62.15-1.01.21-1.4-.06-.05-.12-.11-.17-.16-.07.31-.13.62-.2.92-.06-.1-.12-.2-.18-.3v-3.43Z"/>
  <path d="M591.47,73.03c-1.31-.78-2.61-1.56-3.92-2.34.05-.12.09-.25.14-.37.62.94,1.63-.53,2.32.66.41.7,1.17,1.2,1.77,1.79-.1.09-.21.18-.31.27Z"/>
  <path d="M47.27,55.07c-.7,2.5-2.57,4.45-2.83,7.01-.52-.9-.46-1.51.38-3.01.56-1,1.12-2,1.7-2.98.21-.36.49-.68.74-1.02Z"/>
  <path d="M167.01,111.94c.45-1.9.85-3.82,2.17-5.36-.47,1.89-.97,3.77-2.17,5.36Z"/>
  <path d="M23.01,138.87c0,1.59-.21,3.21.1,4.74.13.67.37,1.02-.35,1.47.11-2.11-.73-4.17-.07-6.23.11,0,.22.01.33.02Z"/>
  <path d="M162.4,80.01c.07-1.47.13-2.81.2-4.16.84,1.17.77,3.39-.2,4.16Z"/>
  <path d="M43.38,59.29c.28-1.57,1.31-2.73,2.18-3.98.08.04.17.09.25.13-.72,1.31-1.44,2.62-2.15,3.94-.09-.03-.18-.06-.27-.09Z"/>
  <path d="M159.81,106.65c.35-1.32.7-2.64,1.06-4.02.19.22.37.43.56.64-.63.64-1.07,1.28-.68,2.27.11.29-.36.82-.57,1.23-.12-.04-.25-.09-.37-.13Z"/>
  <path d="M62.07,32.14c-.07.41-.13.79-.21,1.28-.47-.22-.92-.44-1.48-.7.44-.36.74-.61,1.14-.94.11.07.32.21.55.36Z"/>
</svg>
