<?xml version="1.0" encoding="UTF-8"?>
<svg id="Layer_2" xmlns="http://www.w3.org/2000/svg" viewBox="0 0 188.95 320.88">
  <g id="Layer_1-2" data-name="Layer_1">
    <g>
      <path d="M36.81,93.89c-.73-17.59-10.11-10.41-21.33-14.9C7.99,75.26.52,68.06,0,59.53c-.13-9.1,5.72-21.23,11.32-28.2,4.27-4.75,13.39-2,15.75-7.34,1.81-6.03-.33-14.66,3.62-19.72,12.3-12.39,36.48,5.49,48.8,11.63,5.24,4.65,6.89,6.48,13.73,7.14,15.19,6.64,26.78,20.01,39.73,30.09,4.26,4.3,10.79,5.18,14.72,9.55,3.37,4.07,3.14,10.2,5.01,15.11,4.42,8.58,6.22-9.79,7.34-12.57.83-4.52,3.22-8.07,3.84-11.93-2.7-6.37-9.58-.77-13.19,2.22-12.08,7.46-18.73-9.42-20-18.83-.16-9.86,10.31-10.72,17.58-12.1,1.41-.57,1.46-1.97,1.13-3.25-6.8-15.96,20.09-17.49,18.18-1.91.49,4.74-10.44,9.66-6.93,10.53,11.71-.23,10.42,5.58,9.7,15.1,1.04,2.17,5.69-.03,7.8,1.08,4.98,1.35,7.59,7.02,2.42,10.25-5.77,3.14-6.67,8.23-5.93,14.62.09,3.62-.53,7.19-.84,10.79-.69,5.56-.13,11.13,5.61,12.93,5.97,1.51,13.58,9.95,7.04,14.98-4.49,2.73-11.92,3.53-12.57,10.14-.38,8.08-.97,17.48,2.11,24.92,3.07,6.67.02,14.03,4.36,19.85,2.84,8.97-12.17,9-15.79,3.39-2.06-2.54-2.4-6.31-3.85-8.4-2.29-2.66-7.45-.69-8.57-4.95-2.37-7.35,3.81-14.63,2.38-21.62-5.19-7.16-14.86,23.95-17.69,27.75-4.13,9.4-8.49,18.68-14,27.26-6.33,7.51-.46,16.1.67,24.37,1.69,8.93.5,18.62,3.72,27.16,1.77,7.47,12.14,10.67,16.47,3.74,3.55-8.85,1.17-19.25,2.26-28.65-1.2-11.28,15.37-16.95,17.2-6.57-5.13,11.55-5.83,11.01-5.91,24.78-.89,7.9,3.36,5.35,8.91,6.26,6.22,1.3,4.91,8.42-.37,10.27-4.6,1.9-8.48,5.44-8.73,10.2-.63,3.53,1.31,7.52,1.63,11.34.65,5.92.55,10.95,1.5,17.15.37,6.26,7.56,18.92-3.54,18.16-13.27-6.65-6.11-25.97-10.25-37.62-1.35-13.5-18.86-11.01-21.68.06-6.94,13.2-1.88,28.83-6.06,42.78-2.6,13.14-20.68,11.67-25.32.89-3.25-10.55-.63-22.31-2.07-33.17-1.27-5.57-7.94-.93-11.56-.6-12.29,1.72-16.57,2.96-28.03-2.07-7.26-.6-16.71-3.77-14.9-12.89,5.04-16.26,24.89-8.45,29.08-28.38,4.96-11.79,0-24.44-.27-36.46-.3-2.2.28-15.64-4.05-10.08-2.62,4.32-7.59,7.87-10.14,12.36-5.65,12.26-13.07,3.34-13.6-6.11-.99-7.49-6.77-13.39-6.93-21.02.44-10.95-4.26-21.22-5.63-31.94-.45-5.27-2.45-9.26-3.98-14.4-3.02-11.42,10.48-14.68,18.48-16.42,4.62-2.4,8.49-9.31,12.06-12.25-.58-2.63-9.2,6.64-11.97,6.68-3.78,1.59-9.55-1.51-7.43-5.97,1.19-2.44,3.96-3.44,4.42-5.64l.02-.1ZM86.08,247.91c-.39.83-.37,1.87-.02,2.65.06.11.14.21.25.17.31-.06.56-2.13.87-2.61.09-.13.2-.19.35-.19.58.04.97.51,1.29.99.3.46,1.27,1.11,1.73.84.57-.67.43-2.01-.08-2.73-1.14-1.92-3.47-.91-4.31.72l-.08.16ZM113.07,222.9c-.88,2.03-2.12,3.98-1.23,6.22.39,1,1.13,2.9,2.31,2.94.8-.52,0-2.16-.41-3.67-.2-.73-.36-1.48-.38-2.24-.06-1.48.86-2.91,1.15-4.13.49-2.57-1.05-.43-1.35.69l-.08.2ZM100.69,41.63c-.82-.97-1.14-1.16-.93-.48.99,2.78,2.5,6.21,3.05,9.27,1.15,6.86.03,13.57,6.26,18.05,3.13,2.59,7.26,4.54,9.67,7.83,3.26,4.06.39,9.08-4.67,8.58-2.99-.13-5.82-2.04-8.34-3.51-1.05-.49-2.1-1.22-3.16-.92-.78.36-.78,1.97-.77,4.22.01,1.78-.01,3.51-.41,5.36-1.01,4.73-4.32,9.94-2.55,14.68,1.27,3.36,3.48,6.16,5.45,9.12,4.98,7.43,9.58,2.09,13.65-2.93,3.6-4.54,8.7-8.03,11.55-13,3.66-6.37.61-13.69-.18-20.43-.83-7.42-1.32-16-8.9-19.48-12.12-4.82-12.16-6.04-19.65-16.29l-.08-.09ZM74.33,66.68c-2.7-.98-6.1-2.57-6.22-4.95-.13-2.63,2.45-4.43,4.81-4.99,2.44-.78,5.58.34,7.82-.25,1.58-.8.92-3.72.87-5.39-.6-6.15-1.68-13.32-6.32-17.63-3.84-3.52-6.58-4.65-7.16-10.25-.18-.6-.47-1.07-.99-1.48-1.31-.96-3.25-1.53-4.81-2.23-2.09-.84-4.27-2.15-6.43-3.32-6.11-3.06-14.95-8.06-16.72,2.11-1.03,4.64-.63,9.49.18,14.24.44,3.45.26,6.68.32,9.54.09,2.45-.11,4.95.25,7.36.57,3.71,1.72,7.41,2.78,11.09,2.21,7.11.76,15.94,5.11,22.17,5.3,6.6,17.93,10.66,26.19,9.84,4.92-1,7.1-7.75,8.04-12.42,1.6-5.99-1.69-11.57-7.52-13.37l-.17-.06ZM75.99,192.03c-.18,2.08.18,4.29.51,6.94.28,2.93.42,6,.86,9.07.49,5.09,2.06,10.06,2.53,15.17.32,3.93-1.06,7.6.18,10.71,1.44,3.73,6.01,2.57,7.9-.41,2.82-4.49,5.21-10.11,7.35-15.12,2.55-7.34,2.7-15.1,3.42-22.73.16-4.23-.71-8.49-.4-12.61.16-2.24,1.02-4.52,1.5-6.31,1.73-5.45-.75-1.58-2.69,1.13-1.5,2.66-4.81,4.64-4.47,7.9.71,2.92,2.79,5.61,2.63,9.35-.04,2.92-1.44,5.55-3.95,6.48-5.62,1.88-8.42-4.29-9.43-9.09-.71-2.68-1.56-4.85-2.72-5.29-2.6-.75-3.05,2.66-3.21,4.66v.15ZM84.49,121.95c.37.78,1.19.99,1.99,1.17,1.74.34,4.67.71,6.18,2.67,2.27,2.99,1.53,7.22-.25,10.37-1.59,2.88-4.52,4.66-6.85,6.85-4.39,3.73-3.51,10.17-5.36,15.55-.57,2.38-1.63,5.04-1.55,7.39.23,2.41,1.28,2.14,2.43.25.96-1.49,1.95-3.37,2.78-5.02,1.58-3.11,3.95-6.06,5.78-9.13,1.93-3.05,3.46-6.34,5.34-9.42,3.32-4.94,7.37-9.84,8.78-15.63.49-2.65-1.59-3.91-3.62-5.4-1.48-1.05-3.12-2.44-4.35-3.93-5.31-6.41-9.13-14.3-7.6-22.53.56-4.29,2.87-8.66,3.85-12.73.36-1.45.46-2.39.22-2.57-.2-.17-.65.25-1.17,1.21-.82,1.51-1.51,3.59-2.11,5.4-1.25,4.05-3.04,7.96-5,11.68-3.88,7.95-2.93,9.98-.4,17.82.54,2.13.26,4.38.85,5.93l.04.08ZM128.34,112.97c-1.62,1.83-2.53,3.7-3.33,6.06-1.18,3.68-2.77,7.83-3.14,11.5-.63,3.49,3.68,2.51,6.92,1.59,2.66-.89,5.53-1.67,8.11-2.47,12.39-3.6,8.09-13.25,7.76-23.09-.19-1.4-.26-11.5-2.13-10.34-.96.67-2.42,4.57-4.6,7.38-2.53,3.69-6.49,6.05-9.48,9.24l-.11.13ZM111.48,184.48c7.5-12.01,13.39-24.95,19.62-37.62,2.96-5.84,2.16-7.99-3.4-3.1-3.67,3.37-6.57,7.62-10.91,9.78-2.9,1.48-6.22,2.37-8.81,4.37-4.43,2.98-3.47,8.26-.81,12.02,1.62,2.4,2.43,4.84,2.52,7.91.09,2.93-1.01,6.17-1.6,8.95-.99,4.21,1.48.96,3.29-2.14l.1-.17ZM74.84,115.62c-2.29,1.9-3.27,5.11-6.2,7.85-2.32,2.29-5.37,3.8-8.57,4.31-9.37,1.86-11.46-7.7-20.75-5.56-1.78.26-4.16.54-5.59,1.04-2.5,1-.69,3.88,1.04,4.81,2.99,2.16,7.82,1.37,11.6,1.14,4.9-.12,11.21-.24,12.63,5.32.45,1.53.58,3.57.99,4.94.32,1.09.89,1.65,1.85,1.63,2.8-.47,7.49-3.1,10.28-4.57,4.85-2.56,3.76-8.21,3.55-12.91-.23-1.14.48-8.5-.77-8.02l-.05.03ZM28.82,52.08c-4.01-5.47,2.19-8.24,1.96-13.23-.11-.21-.34-.27-.69-.22-1.35.26-2.86.84-4.27,1.05-1.91.37-4.46-.43-5.62.45-1.19.89-1.02,2.35-1.01,3.71.26,3.31-1.78,6.47-3.99,8.93-2.06,2.58-2.74,5.89-.75,8.36,1.65,1.68,4.65,2.44,6.52,3.05,1.71.43,2.62.99,5.31.48,2.22-.49,5.97-1.12,6.29-3.75-.12-2.93-2-6.35-3.68-8.71l-.07-.11ZM108.13,309.79c.69-1.86.5-4.99.86-7.26.69-4.81,1.24-9.75,1.05-14.62-.4-7.86-1.86-16.39-.28-24.2.11-2.11-1.29-.57-2.24.39-1.7,1.83-3.21,4.35-4.19,6.71-2.78,6.2-.15,12.4-.64,19.04-.1,1.41-.27,2.84-.46,4.26-.22,1.63-.39,3.27-.57,4.9-.26,4.06-2.29,6.91.06,9.62,1.29,1.28,5.1,3.33,6.35,1.25l.04-.09ZM54.56,156.9c.7,1.33,2.78,4.9,3.26,6.97.45,1.01.57,3.44,1.86,3.02,1.59-.94,3.34-3.42,5.66-5.68,1.98-2.02,3.73-4.24,5.03-6.78,1.38-2.65,2.54-6.09,2.82-7.8.05-.47.15-1.05-.25-1.33-.51-.22-1.03.04-1.63.3-2.46,1.28-4.91,3.24-7.29,4.76-2.63,1.85-4.87,3.46-7.5,4.62-.74.43-2.26.78-1.98,1.85l.02.07ZM48.79,264.68c-.07.24.27.32.97.3,1.24-.05,2.93-.3,4.28-.53,5.97-1.05,12.48-.49,16.01-5.93.9-1.25,3.23-6.63,0-5.59-2.16,1.04-4.16,2.93-6.39,4.02-3.65,1.88-7.4,3.52-11.12,5.32-1.19.63-3.03,1.43-3.72,2.36l-.02.04ZM177.7,52.94c2.2-1.47-.32-2.17-1.97-2.49-3.76-.61-7.11.83-9.18,4.27-1.37,2.02-2.61,4.84-1.89,6.82.73,2.47,2.8,2.34,4.05.06,1.12-1.88,1.98-4.87,3.91-6.14,1.43-1.29,3.63-1.7,4.96-2.47l.11-.06ZM79.1,170.43c-4.45,2.13-.68,6.2,2.66,6.83,1.9.43,2.37-.92,3.31-2.93.76-2.52,2.87-4.88,2.62-7.64-.21-3.21-2.38-1.31-3.49.55-1.16,1.82-3.01,2.44-4.94,3.13l-.16.07ZM51.97,176.56c-1.18,1.37-1.41,3.97-2.11,5.95-.4,1.51-1.17,2.87-1.55,4.22-.02.15,0,.24.08.28,1.71-.33,3.8-2.57,6.76-3.16,1.45-.35,3.19-.33,4.59-.34,1.8.08.92-1.53.82-2.7-.38-2.23-.42-4.64-.03-6.89.31-2.16,1.59-8.14-.14-5.52-.67,1.09-1.29,2.49-2.14,3.64-1.27,2.23-4.81,3.2-6.21,4.44l-.08.08ZM174.69,168.63c.72-1.82-2.53-3.96-3.68-5.42-1.36-1.56-2.29-3.75-2.99-4.08-.68-.26-.93.73-1.25,1.22-1.25,2.26-1.1,4.7.59,6.65.76.96.8,2.31,2.46,2.73,1.52.46,3.87.43,4.81-.98l.06-.12ZM139.77,80.52c.66,3.46,1.86,7.32,2.06,10.92.24,2.17.54,3.71.89,3.88.17.09.36-.09.55-.53,1.73-5.18-1-10.42-2.2-15.61-.78-3.1-1.62-9.84-2.99-11.01-.31-.02-.23.37-.26.72.1,3.77,1.3,7.68,1.91,11.42l.04.21ZM153.74,42.13c.67.32,1.52.27,2.06-.28.89-.81.14-2.42-.16-4.1-.23-1.17-.23-2.42-.81-3.48-.85-1.85-4.55-2.93-4.69-.22.3,2.54,1.16,6.63,3.47,8.03l.13.06ZM70.58,103.1c-1.4-.21-4.47,1.12-6.71,2.07-1.87.76-5.61,2.36-5.89,2.81-.15.18-.07.34.2.54.78.54,1.89,1.12,2.49,1.95.97,1.24,1,3.74,1.37,4.26.15.24.37.18.54-.04,1.27-1.79,1.58-4.33,2.83-6.21.76-1.25,1.95-2.26,3.14-3.18,1.59-1.22,2.65-1.99,2.1-2.18l-.06-.02ZM15.48,67.27c.51,1.28,1.76,2.23,2.81,3.18,3.13,2.82,6.47,1.4,9.81,0,1.99-.89,7.14-1.2,6-4.36-1.54-2.31-5.67,2.26-7.84,2.58-1.73.59-3.58.79-5.33.46-2.36-.33-4.42-2.05-5.44-1.9v.03ZM33.3,34.43c-.65.68-.07,1.9-.25,2.79-.33,1.62-.26,2.81-.63,4.32-.48,1.4-.63,2.59,1.33,2.43,2.92-.18,3.79-2.55,3.52-5.14-.07-1.7-.13-3.19-1.45-4.07-.66-.44-1.72-.75-2.44-.39l-.09.06ZM107,246.28c1.2-2.01,2.5-4.1,4.9-4.71.83-.33,1.35-.63,1.32-.92,0-.15-.15-.29-.41-.41-3.31-1.28-5.89,2.97-8.17,4.81-7.19,5.87-1.36,6.95,2.26,1.38l.1-.16ZM159.66,24.33c.38-1.32-1.34-2.88-1.54-4.26-.57-2.16,1.83-3.78.63-4.4-1.92-.62-4.92-.22-6.72.84-1.1.78.75,1.15,1.33,2.21.6,1.02.51,2.34,1.32,3.28.9,1.08,3.5,2.76,4.92,2.38l.05-.05ZM84.29,34.25c.65-2.02.91-5.16-.89-6.74-1.68-1.47-5.88-3.39-5.48-.26.61,2.1,2.98,2.13,3.92,4.47.37.73,1.42,3.66,2.4,2.63l.06-.1ZM160.39,133.6c1.42-1.12.73-3.2.87-4.78.03-1.78,1.04-3.65.42-4.84-.61-1.25-2.3-1.58-3.56-1.49-1.55.07-1.04,1.1-.53,2.08.46.88.78,1.87.75,2.88.21,1.8-1.71,4.64-.9,5.99.61.87,2,.76,2.82.25l.13-.09ZM88.14,260.09c-.37-.81-1.6-.92-2.44-.8-3.04.45-4.2,3.47-6.65,5.61-1.29,1.3-3.52,2.48-4.37,3.99,0,.14.23.15.64.04,1.42-.41,2.91-1.53,4.14-2.43,2.27-1.74,4.8-3.04,7.22-4.49.65-.42,1.62-1.13,1.49-1.83l-.03-.09ZM160.91,97.62c-.4-.51-.79-.12-1.42.94-.87,1.89-2.38,4.16-3.14,6.25-.89,2.03.08,6.32,1.8,3.52.53-.93.86-2.14,1.42-3.08.92-1.63,2.87-2.24,2.92-3.28,0-1.41-.83-3.1-1.52-4.26l-.07-.08ZM94.45,35.08c1.09.92,3.35,1.32,4.58,2.49.82.57,1.68,1.26,2.63.88.91-.5.2-1.53-.78-2.41-.92-.78-1.61-1.81-2.39-2.73-.97-1.13-2.5-1.85-3.5-1.27-1.01.53-1.37,2.06-.64,2.93l.1.11ZM95.38,101.73c2.69-2.35-1.26-6.41-.21-9.1.38-1.34,1.6-2.6,2.24-3.75.89-1.71-2.54-.15-3.1.26-3.53,2.21-1.96,6.35-.93,9.24.24,1.02.73,2.43,1.32,3.17.18.21.38.3.6.22l.07-.03ZM46.58,203.27c2.57-1.34.76-2.62.17-4.52-.32-1.19.36-3-.48-3.86-2.17-1.69-2.33,3.7-3.06,4.89-.99,2.49.5,4.84,3.2,3.57l.17-.08ZM101.63,69.77c-.82-1.13-2.71-1.87-3.9-2.79-1.17-.88-2.38-1.54-2.67-1.02-.32,1.35,1.05,2.6,1.48,3.83.74,1.5.98,3.41,1.97,3.66,1.61.32,4.28-1.87,3.22-3.54l-.1-.14ZM48.06,138.91c-.49-.47-1.38-.58-2.08-.61-2.04,0-4.07.16-6.08,1.09-.89.24-5.49,2.89-2.61,3.11,2.77-.54,5.61-1.16,8.5-1.46.95-.19,2.75-.9,2.33-2.05l-.06-.08ZM119.73,123.3c.71-1.77,1.36-4.71.17-6.47-.69-.9-1.86-.89-1.99-.18-.22.94.69,2.09.49,3-.35.84-1.66,1.04-2.17,1.8-1.11,1.68,2.14,3.95,3.42,2l.09-.14ZM50.53,172.21c.12.11.24.03.33-.2.65-3.04-.38-5.08-.7-7.5-.6-2.38.69-5.69-.58-5.68-1.25.09-3.25.96-3.93,1.99-.08.61.66.97,1.13,1.49,2.03,1.61,2.74,3.91,2.96,6.64.22,1.59.47,2.9.74,3.21l.04.04ZM68.06,266.72c-.17-.14-.36-.03-.59.32-2.06,3.9-2.35,4.57-6.76,3.37-.28-.03-.68-.05-.64.32.45,1.34,2.31,2.88,3.8,3.07,2.83.16,5.35-4.51,4.24-7.02l-.06-.06ZM100.89,257.33c.78-.06,1.77-.99,2.4-1.6,1.9-1.9,4-3.96,6.16-5.68,2.38-1.7,4.34-4.74,0-1.5-2.26,1.9-4.4,3.83-6.63,5.65-.79.64-1.74,1.59-2.1,2.46-.15.37-.11.61.1.65h.07ZM41.05,165.34c-.48-.31-1.14.93-1.03,2.5.08,1.09.28,2.19.35,3.28.22,2.07-.26,4.35,1.05,5.99.33.39.86.8,1.32.47,1-1.13-.91-4.06-1.05-5.9-.26-1.29-.32-2.64-.2-3.94.04-.78.13-1.9-.37-2.36l-.06-.04ZM50.63,141.7c-.57.46-1.54.64-1.87,1.23-.57,1.72,2.09,2.79,3.46,2.12,1.45-.5,1.46-1.64,1.06-2.9-.78-2.78-1.18-1.94-2.51-.56l-.14.11ZM26.5,126.61c1.07.23,1.76-1.32,1.92-2.26.08-1.25.98-2.12,1.12-3.28-.37-1.93-3.2-.72-3.95.41-.88,1.09.21,2.27.48,3.38.17.61.06,1.22.36,1.68l.07.06ZM158.67,89.23c-.46.02-.73.5-.9.94-.75,1.8.22,3.74.77,5.36.26.58.5,1.64,1.17,1.75.92-.52.4-2.09.51-3.01.11-1.69.4-4.19-1.44-5.03h-.12ZM57.61,123.45c1.17.31,3.41-1.65,2.28-2.38-.59-.2-1.25-.12-1.84-.38-.91-.37-1.9-1.17-2.91-1.08-.64.04-.96.41-.87.94.43,1.31,1.83,2.59,3.15,2.88l.19.02ZM154.03,209.7c-.88-3.33-3.21-1.46-3.83.89-.22,1.06.22,3.09,1.55,3.04.81-.26,1.09-1.47,1.55-2.14.33-.56.72-1.03.74-1.62v-.18ZM165.15,81.36c.72-.38.94-1.42,1.24-2.15.62-1.75,1.44-3.77.33-5.13-.79-.99-2.22-1.29-1.62.48.69,1.68-.24,3.43-.69,5.06-.08.38-.14,1.86.64,1.77l.1-.03ZM70.5,171.02c-.93.96-.35,4.02.66,4.77.94.88,2.73,2.01,3.27.51.15-.38.33-.99,0-1.27-.3-.24-.73-.25-1.08-.44-1.09-.39-1.66-3.3-2.76-3.58h-.08ZM57.75,115.83c.44-.62.57-1.42.86-2.16.19-.59.31-.96-.05-1.18-.88-.45-2.89-.8-3.71-.2-.69.55.1,1.68.11,2.27.03.47-.3.89-.49,1.28-.8,1.49,2.74.81,3.18.12l.11-.13ZM46.09,91.01c.28-.84-.19-2.92-.75-3.72-.9-1.59-5,.75-3.95,2.32.83.83,2.22.38,3.23.87.67.29,1.19.68,1.41.58l.06-.04ZM89.77,268.98c.39-.02.94-.72,1.59-.83.9-.16,1.94,1.02,2.78,1,.95.03,1.28-1.13.85-1.85-.7-1.27-2.4-1.72-3.71-1.38-1.01.25-1.94.88-2.04,1.78-.09.45.08,1.22.44,1.26h.1ZM160.62,39.57c-.97.76-.09,2.72.27,3.77.41,1.12,1.17,2.27,2.14,2.25.91,0,1.38-.92,1.07-1.75-.41-1.13-1.44-2.1-2.14-3.11-.45-.62-.88-1.17-1.24-1.17h-.1ZM39.24,155.86c.78-.02,1.5-1.56,2.18-2.06,1.59-1.66,4.11-2.03,5.86-3.5.57-.4,1.21-1.58.02-1.2-.92.31-1.83,1.01-2.69,1.51-2.15,1.28-5.77,2.25-5.41,5.21l.05.04ZM165.24,70.07c.26.41,1.18-.35,1.49-.75.92-1.14,2.14-2.74,1.32-3.62-.76-.74-2.29-1.09-3.25-.73-.85.56.65,2.04.47,2.94.05.67-.26,1.46-.08,2.09l.05.09ZM105.2,153.44c.66-.23,1.56-1.53,2.47-1.8.77-.32,2.26-.7,1.74-1.77-.68-1.22-3.53-1.78-4.16-.49-.39.97-.19,2.2-.36,3.2-.04.55-.02.9.23.88l.09-.02ZM152.53,259.51c.79-.8.33-2.29-.37-3.1-.69-.73-1.11-1.69-1.61-2.48-.77-.94-2.26.23-2.81.94-.3.5.13.92.96,1.33.77.37,1.6.77,2.21,1.37.57.43,1.28,1.93,1.54,1.94h.06ZM43.33,189.98c-1.08,1.57.58,4.38,2.57,3.84,1.55-.48-.14-1.54-.48-2.31-.35-.82-.91-2.29-1.98-1.62l-.11.1ZM148.28,251.83c.65.99,3.57,1.88,3.98.33-.06-1-1.63-2.82-2.67-2.31-.61.35-1.44,1.11-1.36,1.84l.05.13ZM105.88,217.19c.41.06.65-.57.85-.98.76-2.1,1.42-4.32,1.91-6.5.2-.59.03-3.02-.76-1.56-.34.76-.44,1.89-.57,2.77-.19,1.75-1.05,3.36-1.48,4.89-.08.4-.27,1.05-.02,1.35l.05.04ZM145.32,47.96c-.71.29-1.03,1.61-1.37,2.3-.55,1.47.49,1.27,1.59,1.44.42.08.84.25,1.24.37,1.94.64,1.59-1.38.51-2.25-.58-.47-1.25-1.72-1.86-1.87h-.11ZM110.9,232.21c-1.04-2.07-4.51,2.11-4.98,3.23-.7,2.15,1.06.61,1.72-.12.87-1.01,3.09-1.7,3.27-2.98v-.13ZM78.31,123.62c-.44,1.62,1.82,2.96,2.68,4.1,1.04.96.87-1.19.79-1.79-.13-1.48-1.4-2.2-2.69-2.45-.22-.03-.54-.08-.7.06l-.08.08ZM34.23,59.94c.03.8.73,1.73,1.28,2.32,1.3,1.06,1.47-1,1.56-1.95.13-.85.32-1.78-.22-2.06-.95-.36-2.36.66-2.61,1.53l-.02.15ZM165.06,37.41c-.18-.22-.56-.36-.99-.45-.95-.21-1.92-.51-2.4.11-.42.53-.56,1.46.08,1.88,1.04.75,3.64.11,3.39-1.42l-.08-.12ZM75.04,20.71c.69.22,1.51,1.19,2.35.93.72-.23.75-1.14.06-1.58-.45-.32-1.1-.47-1.7-.67-.94-.3-2.02-.69-2.42-.14-.32.4-.21,1.09.32,1.25.33.12.79.05,1.22.15l.16.05ZM93.3,75.02c.44-.71.43-1.69.62-2.59.1-.69,0-1.32-.51-1.63-.4-.25-.92-.2-1.05.33-.08.71-.51,4.69.84,3.98l.09-.09ZM90.59,46.06c-.51.35,0,1.29.11,1.83.5,1.18.21,2.56.83,3.6.38.39.68-.23.77-.59.4-1.6.42-4.38-1.6-4.85l-.1.02ZM74.87,242.12c-.74.09-1.04,1.83-1.09,2.49-.22,1.2,3.02,2.1,3.31.88-.06-.89-1.09-1.32-1.4-2.14-.24-.52-.46-1.06-.73-1.19l-.1-.04ZM89.2,34.9c.11-.47,1.25-1.23.65-1.55-.76-.35-3.45-.04-3.31.97.18.84.8,1.64,1.64,2.09,1.03.31.87-.71.98-1.37l.04-.14ZM79.95,95.82c.35,1.45,1.99.62,2.25-.65.3-.78,1.05-4.28-.64-2.49-.56.86-1.39,2-1.61,2.97v.17ZM164.56,87.56c1.12-.17.64-2.1.65-2.9-.03-.4.02-.91-.3-1.2-.75-.58-2.04.12-1.78,1.13.28.78.61,2.49,1.31,2.96l.12.02ZM181.06,103.46c-.47.44-2.53,3.45-.66,3.12,1.15-.3,1.85-1.72,2.46-2.62.35-.92-1.2-.86-1.67-.58l-.14.09ZM89.52,78.86c.6-1.33-1.38-2.74-2.54-1.88-.82,1.22,1.36,2.54,2.43,1.98l.1-.1ZM112.49,131.06c.35.05.4-.74.44-1.09-.02-1.04.15-2.06.47-3.05.47-1.55-1.7-1.75-2.52-.92-.45.79.65,1.45.9,2.15.4.74.23,2.48.64,2.87l.06.04ZM69.34,98.9c.38.18.97.09,1.41.13.36.02.66-.03.76-.26.18-.64-.48-1.71-1.07-2-1.05-.49-2.01,1.35-1.23,2.05l.13.08ZM170.21,103.86c.63-.25,1.13-1.06.81-1.55-.28-.46-.82-1.13-1.29-1.08-.76.11-1.26,1.28-.96,1.88.2.45.76.88,1.25.8l.19-.05ZM150.87,120.02c.17.55,1.12.69,1.66.69.41,0,.88,0,1.2-.1.53-.14.61-.92.27-1.31-.58-.37-2.93-.33-3.14.59v.13ZM147.37,122.08c-.61.82.07,3.03,1.26,3.14.38-.09.47-.99.59-1.56.11-.62-.23-1.06-.83-1.35-.26-.13-.69-.41-.93-.3l-.1.07ZM99.58,242.64c.6.69,1.81-.9,2.31-1.33.89-.85-.33-2.23-1.22-1.42-.53.57-1.14,1.85-1.12,2.62l.04.13ZM105.97,119.43c.35.52.88,1.03,1.05,1.7.17.58.36,1.01.56.87.17-.1.29-.6.28-1.16-.04-1.2-.24-2.3-1.09-2.69-.85-.47-1.32.4-.88,1.13l.09.15ZM111.6,146.11c.99.2,2.06-.99,2.44-1.81.31-.64-.36-1.28-1.01-1.09-.74.25-1.08,1.15-1.35,1.85-.15.4-.32.81-.17.98l.09.07ZM87.52,26.96c-.71-1.19-3.12-2.07-2.1.35.36,1.03.7,1.67,1.32.96.19-.14.67-.75.8-1.16l-.02-.14ZM163.9,107.24c-.97.45-1.75,2.35-.9,3.23.59.02.77-.44,1.13-.79.69-.67.96-2.14-.08-2.47l-.15.02ZM110.22,43.84c.1.66,1.31,1.96,1.88,2.32.44.25,1.08-.19,1.03-.69-.1-.63-1.03-1.21-1.49-1.71-.41-.44-1.2-.73-1.41-.07v.15ZM99.91,168.39c-.51.14-1.12,1.07-1.44,1.55-.77,1.08.86,1.98,1.71,1.82.32-.1.27-.7.24-1.02-.14-.66-.04-1.84-.43-2.33l-.09-.03ZM160.53,19c-.78.23-1.65,1.6-1.28,2.44.21.54.9.35,1.34.14.51-.2.94-.44.95-.82.01-.42-.47-1.48-.88-1.73l-.12-.02ZM66.52,248.4c-.93-.36-3.23,1.4-1.58,2.05,1.23.54,2.26-.95,1.68-1.98l-.1-.07ZM153.1,95.65c.81-.36.6-1.67.33-2.43-.12-.49-.16-1.02-.4-1.17-1.49-.49-.82,3.33-.05,3.61h.12ZM125.82,107.61c.82.55,2.98-.22,2.12-1.42-.37-.51-.93-.54-1.37-.18-.41.33-1.08.94-.84,1.5l.09.11ZM36.42,48.21c.58-1.42-.85-2.83-2.3-2.52-.19.07-.47.16-.32.43.19.35.8.79,1.2,1.17.48.36.83.91,1.33.97l.09-.05ZM106.75,176.66c.4-.43.37-1.49.2-1.93-.2-.45-.93-.96-1.45-.68-.36.32-.28,1.48-.09,1.89.18.39.88.85,1.24.78l.11-.06ZM63.61,253.06c.02-.39-.78-.7-1.14-.9-.42-.19-1.21-.76-1.55-.53-.34.25-.33,1.83.02,2.1.26.24.89.02,1.26-.08.4-.13,1.13-.24,1.36-.5l.04-.09ZM153.86,124.69c-.88.41-.81,2.72-.51,3.52.08.18.54-.32.57-.38.84-.84,1.3-2.52.07-3.15h-.13ZM120.58,252.29c-.47-.39-.77.69-1.04,1.19-.22.51-.52,1.07-.67,1.54-.2,1,1.26.37,1.5-.14.39-.54.52-1.7.28-2.47l-.07-.13ZM94.19,28.42c.45-1.28-1.75-1.59-2.4-.75-.89.78-.43,1.06.53,1,.55-.04,1.34.11,1.76-.16l.1-.1ZM126.52,110.37c-.19-.69-1.09-1.44-1.38-2.1-.26-.48-.84-.8-1.26-.39-.48.89,1.84,2.74,2.62,2.55l.03-.06ZM104.56,39.09c.38.52,2.2-.08,2.13-.66-.03-.49-.8-1.79-1.34-1.79-.6.15-.84,1.78-.84,2.33l.04.12ZM166.15,153.43c-.42.07-1.83.48-1.31,1,.31.32.87.68,1.31.68.44.02,1.03-.33,1.36-.64.54-.53-.78-.96-1.18-1.04h-.18ZM139.93,37.97c.09.15.78.12.82.12.84.04,1.68-.38,1.16-1.19-.27-.27-.88-.16-1.36-.18-.74-.07-.89.62-.68,1.17l.07.09ZM40.05,67.29c.38-1.02-1.18-1.4-1.75-.84-.46.44-.81,1.76.27,1.54.45-.12,1.08-.24,1.39-.57l.08-.13ZM65,96.17c.09.45.9,1.09,1.3.87.41-.21,1.43-.88,1.42-1.38-.31-.92-2.26-.07-2.69.38l-.03.13ZM60.01,92.28c-.09-.16-.77-.1-.81-.11-.76-.02-1.72.38-1.18,1.22.26.27.87.16,1.36.18.76.07.91-.65.7-1.21l-.07-.09ZM79.02,112.37c-.52.37-1.16,1.05-1.38,1.66-.07.33.26.54.69.4.53-.14.94-.61,1.32-1.01,1-.9.72-1.44-.48-1.12l-.15.07ZM112.82,253.57c.02.43.74.18,1.05.06.41-.16.84-.28,1.07-.56.5-.5-.18-1.46-.76-1.35-.58.21-1.05,1.2-1.34,1.72l-.02.13ZM85.08,83.38c-.03.56.41,1.44.71,1.94.73.72,1.08-.43.98-1.08.04-.68-.14-1.1-.77-1.06-.25,0-.68-.04-.86.11l-.07.09ZM96.13,252.94c.57-.93-.7-2.31-1.56-1.33-.92.91.6,2.03,1.45,1.45l.11-.12ZM98.23,79.27c-.85.32-1.96,1.42-1.43,2.21.16.33.51.77.74.71.31-.04.39-.91.48-1.28.06-.45.33-1.23.27-1.59l-.06-.04ZM89.7,260.91c.77-.01,2.25-.67,2.51-1.4.06-.42-.72-.17-.99,0-.41.23-.87.46-1.35.43-.54-.04-1.08-.06-1.12.27-.05.31.42.64.8.7h.15ZM102.95,232.83c-.7-.25-2.68.74-2.01,1.66.91.75,2.22-.81,2.09-1.58l-.08-.07ZM172.68,58.29c.6.24,1.86-.28,2.6-.4.52-.14,1.42-.27,1.79-.54.59-.77-1.89-.69-2.37-.49-.76.17-2.29.53-2.1,1.37l.08.06ZM51.41,90.75c-.19.38-.15,1.37,0,1.72.18.34.82.32,1.11.02.47-.65-.14-1.94-1.02-1.8l-.09.07ZM84.83,36.98c-.42-.49-3.21-1.58-2.53,0,.29.42.79.9,1.26.96.39.06,1.15-.45,1.29-.85l-.03-.11ZM93.28,106.67c.23.41.79-.1,1.06-.35.33-.29.73-.62.79-.92.14-.56-1.48-.8-1.75-.53-.3.27-.21,1.2-.15,1.65l.05.13ZM72.58,263.75c-.43-.01-1.09.76-1.52,1.03-.36.28-.75.56-.7.79.02.3.73.51,1.09.48.83-.15,1.71-1.43,1.23-2.24l-.11-.06ZM72.57,62.98c.86.39,1.02-.42.8-1.11-.04-.79-.75-1.5-1.43-.99-.22.33.07.87.15,1.26.08.31.17.59.36.75l.12.09ZM164.96,141.74c.67.15.37-1.17.13-1.77-.13-.42-.24-.98-.45-1.21-.35-.41-.75.1-.8.51.02.77.52,1.88,1.01,2.41l.12.06ZM45.02,96.25c-.92-.2-1.56.74-1.02,1.61.31.31.83.07.99-.17.2-.36.31-.88.14-1.37l-.1-.07ZM119.46,127.59c.38-.85.1-2.24-1.1-1.69-.55.66.14,1.74.99,1.74l.11-.05ZM113.58,79.46c.28-.59-.26-1.33-.95-1.22-.62,0-1.15.67-.76,1.22.39.27,1.18.21,1.61.09l.1-.09ZM111.85,132.15c-.78.51-1.05,1.97.07,2.38.18,0,.28-.25.35-.56.21-.58.52-1.69-.28-1.86l-.14.03ZM108.5,205.55c.15.13.8.15,1.04-.07.33-.37.21-.9.25-1.23,0-.62-.7-.59-.98-.17-.18.34-.35,1-.35,1.38l.05.09ZM70.31,168.42c-.3.15-.43.94-.58,1.28-.17.41-.23.86,0,1.04.54.34,1.41-.89,1.43-1.31.03-.36-.35-.85-.72-1.02h-.12ZM105.86,140c-.73.49.85,1.61,1.37,1.56.42-.14.45-.37.27-.75-.36-.36-1.08-.74-1.52-.84l-.12.02ZM107.55,75.76c.18-.28.07-1.02.1-1.43,0-.42-.01-.8-.16-.84-.14-.06-.4.22-.67.54-.47.54-.97,1.05-.15,1.48.21.11.59.38.79.31l.09-.06ZM156.6,299.67c1.28.19,1.47-1.16.77-2.15-.16.02-.33.63-.49.99-.13.39-.41.89-.35,1.08l.07.08ZM92.56,59.73c-.21.24-.29.94-.35,1.23-.14.68.79.77,1.1.44.16-.19-.08-.57-.24-.89-.12-.2-.31-.68-.45-.77h-.06ZM16.29,39.24c-.26-.5-1.11-.13-1.42.15-.34.2.38,1.74.72,1.43.27-.28.64-1.03.72-1.44l-.02-.14ZM114.53,279.13c.59-.15.28-.83-.06-1.2-.26-.44-1.09-.32-1.26.05-.06.16.14.35.38.55.23.18.52.53.78.59h.16ZM122.33,112.5c.29.04.66-.38.93-.54.61-.4.76-.76.07-1.08-.52-.26-1.1-.64-1.17.14.02.41-.1,1.08.09,1.42l.08.06ZM162.31,163.29c-.35.27.13,1.21.27,1.61.22.45.64.82.99.5.25-.67-.69-1.65-1.17-2.09l-.09-.02Z"/>
      <path d="M17.28,54.75c.55-.13,1.57.37,2.22.55,1.15.29,2.46.93,1.03,2.17-1.03.96-2.17.88-2.67-.32-.23-.66-1.09-1.75-.67-2.35l.1-.05Z"/>
      <path d="M153.62,37.37c.28.56-.64,1.57-1.18,1.31-.22-.17-.18-.92-.09-1.22.11-.36.82-.31,1.19-.19l.08.1Z"/>
    </g>
  </g>
</svg>